<svg width="2291" height="1937" viewBox="0 0 2291 1937" fill="none" xmlns="http://www.w3.org/2000/svg">
<g filter="url(#filter0_dii_237_10)">
<rect x="835.778" y="656" width="428.725" height="289.627" rx="10" fill="#212121"/>
<rect x="1295.94" y="656" width="160.057" height="289.627" rx="10" fill="#212121"/>
<path d="M785.888 980V921.12H721.12V890.4H891.36V921.12H826.336V980H785.888ZM964.335 889.12H1057.78C1082.48 889.12 1102.58 910.496 1102.58 935.2C1102.58 959.904 1082.48 981.28 1057.78 981.28H964.335C939.631 981.28 919.535 959.904 919.535 935.2C919.535 910.496 939.631 889.12 964.335 889.12ZM1049.46 922.4H972.655C965.615 922.4 959.855 928.16 959.855 935.2C959.855 942.24 965.615 948 972.655 948H1049.46C1056.5 948 1062.26 942.24 1062.26 935.2C1062.26 928.16 1056.5 922.4 1049.46 922.4ZM1242.46 967.328L1232.22 980H1186.65L1114.08 890.4H1159.64L1209.44 951.84L1219.68 939.168L1180.12 890.4H1225.69L1242.46 911.136L1259.23 890.4H1304.8L1265.24 939.168L1275.48 951.84L1325.28 890.4H1370.84L1298.27 980H1252.7L1242.46 967.328ZM1398.99 980V890.4H1439.44L1528.78 941.6V890.4H1569.23V980H1528.78L1439.44 928.8V980H1398.99Z" fill="#BBBBBB"/>
<rect x="836" y="964" width="620" height="108" rx="10" fill="#212121"/>
</g>
<path d="M699.04 795.4H622.24C615.2 795.4 609.44 801.16 609.44 808.2C609.44 815.24 615.2 821 622.24 821H651.296L640.672 807.944L676 808.072L686.496 821H699.04C706.08 821 711.84 815.24 711.84 808.2C711.84 801.16 706.08 795.4 699.04 795.4ZM613.92 762.12H707.36C732.064 762.12 752.16 783.496 752.16 808.2C752.16 830.984 735.136 850.824 713.248 853.896L720.8 863.24H685.472L678.176 854.28H613.92C589.216 854.28 569.12 832.904 569.12 808.2C569.12 783.496 589.216 762.12 613.92 762.12ZM869.004 840.328L858.764 853H813.196L740.62 763.4H786.188L835.98 824.84L846.22 812.168L806.668 763.4H852.236L869.004 784.136L885.772 763.4H931.34L891.788 812.168L902.028 824.84L951.82 763.4H997.388L924.812 853H879.244L869.004 840.328ZM1002.5 853V763.4H1168.9V786.44H1042.94V796.68H1168.9V819.72H1042.94V829.96H1168.9V853H1002.5ZM1303.28 794.12H1219.57V804.36H1303.28C1306.86 804.36 1308.91 802.44 1308.91 799.24C1308.91 796.04 1306.86 794.12 1303.28 794.12ZM1219.57 853H1179.12V763.4H1313.52C1335.92 763.4 1349.36 781.32 1349.36 799.24C1349.36 814.728 1339.25 830.216 1322.1 834.184L1349.36 853H1297.14L1271.15 835.08H1219.57V853ZM1420.51 853V794.12H1355.75V763.4H1525.99V794.12H1460.96V853H1420.51ZM1606.26 853V822.28L1531.12 763.4H1584.5L1626.48 796.424L1668.46 763.4H1721.84L1646.7 822.28V853H1606.26Z" fill="#BBBBBB"/>
<g filter="url(#filter1_f_237_10)">
<ellipse cx="1146.5" cy="853" rx="286.5" ry="152" fill="white" fill-opacity="0.5"/>
<path d="M1432.5 853C1432.5 894.698 1400.63 932.566 1348.85 960.039C1297.09 987.5 1225.55 1004.5 1146.5 1004.5C1067.45 1004.5 995.909 987.5 944.148 960.039C892.365 932.566 860.5 894.698 860.5 853C860.5 811.302 892.365 773.434 944.148 745.961C995.909 718.5 1067.45 701.5 1146.5 701.5C1225.55 701.5 1297.09 718.5 1348.85 745.961C1400.63 773.434 1432.5 811.302 1432.5 853Z" stroke="black"/>
</g>
<path d="M648.558 1157.32V1181H640.686V1170.31L635.47 1181H628.206L622.638 1170.18V1181H614.734V1157.32H623.758L631.822 1173.61L639.758 1157.32H648.558ZM665.155 1168.1C668.312 1168.1 670.627 1168.65 672.099 1169.74C673.592 1170.82 674.339 1172.43 674.339 1174.57V1174.66C674.339 1176.69 673.741 1178.26 672.547 1179.37C671.373 1180.46 669.357 1181 666.499 1181C665.901 1181 665.464 1180.99 665.187 1180.97V1181H650.819L650.723 1163.56H658.083L658.115 1168.1H665.091H665.155ZM675.299 1181V1163.56H682.659V1181H675.299ZM664.291 1176.81C665.101 1176.81 665.741 1176.77 666.211 1176.68C666.68 1176.59 667.075 1176.38 667.395 1176.04C667.715 1175.7 667.875 1175.17 667.875 1174.44C667.875 1173.69 667.704 1173.16 667.363 1172.84C667.043 1172.52 666.659 1172.34 666.211 1172.3C665.763 1172.23 665.069 1172.2 664.131 1172.2H664.099H658.115L658.147 1176.78C661.325 1176.78 663.107 1176.79 663.491 1176.81H664.291ZM706.539 1162.82C708.843 1162.82 710.923 1163.23 712.779 1164.04C714.635 1164.85 716.086 1165.98 717.131 1167.43C718.176 1168.86 718.699 1170.47 718.699 1172.26C718.699 1174.03 718.166 1175.65 717.099 1177.1C716.054 1178.53 714.603 1179.65 712.747 1180.46C710.912 1181.27 708.843 1181.67 706.539 1181.67C704.32 1181.67 702.24 1181.27 700.299 1180.46C698.358 1179.62 696.8 1178.49 695.627 1177.06C694.475 1175.61 693.899 1174.01 693.899 1172.26C693.899 1170.49 694.475 1168.89 695.627 1167.46C696.8 1166.01 698.347 1164.88 700.267 1164.07C702.208 1163.24 704.299 1162.82 706.539 1162.82ZM706.539 1177.1C707.392 1177.1 708.182 1176.91 708.907 1176.55C709.654 1176.19 710.251 1175.65 710.699 1174.92C711.147 1174.17 711.371 1173.29 711.371 1172.26C711.371 1171.24 711.147 1170.37 710.699 1169.64C710.251 1168.89 709.654 1168.34 708.907 1167.98C708.182 1167.61 707.392 1167.43 706.539 1167.43C705.707 1167.43 704.886 1167.62 704.075 1168.01C703.286 1168.37 702.635 1168.91 702.123 1169.64C701.611 1170.37 701.355 1171.24 701.355 1172.26C701.355 1173.29 701.611 1174.16 702.123 1174.89C702.635 1175.61 703.286 1176.17 704.075 1176.55C704.886 1176.91 705.707 1177.1 706.539 1177.1ZM744.231 1172.94V1172.97C744.21 1175.83 743.1 1177.97 740.903 1179.4C738.727 1180.81 735.858 1181.51 732.295 1181.51C728.327 1181.51 725.298 1180.77 723.207 1179.27C721.116 1177.78 719.858 1175.31 719.431 1171.88C719.41 1171.56 719.399 1171.08 719.399 1170.44C719.399 1166.96 720.071 1164.35 721.415 1162.6C722.759 1160.83 724.38 1159.7 726.279 1159.21C728.199 1158.7 730.428 1158.44 732.967 1158.44H733.031C733.948 1158.48 735.026 1158.44 736.263 1158.31C737.522 1158.18 738.151 1157.85 738.151 1157.32L744.647 1157.35C744.647 1159.21 744.092 1160.59 742.983 1161.51C741.895 1162.41 740.53 1162.98 738.887 1163.24C737.244 1163.47 735.186 1163.59 732.711 1163.59C729.81 1163.59 727.932 1164.67 727.079 1166.82C728.124 1166.35 729.287 1166.05 730.567 1165.9C731.847 1165.73 733.223 1165.64 734.695 1165.64C737.554 1165.64 739.847 1166.28 741.575 1167.56C743.324 1168.82 744.21 1170.6 744.231 1172.9V1172.94ZM732.679 1176.23C733.746 1176.23 734.716 1176.02 735.591 1175.59C736.487 1175.14 736.935 1174.24 736.935 1172.87C736.935 1171.59 736.508 1170.7 735.655 1170.18C734.802 1169.65 733.746 1169.38 732.487 1169.38C730.652 1169.41 729.298 1169.62 728.423 1170.02C727.57 1170.43 727.068 1171.05 726.919 1171.88C726.898 1172.05 726.887 1172.29 726.887 1172.58C726.887 1173.78 727.218 1174.64 727.879 1175.18C728.562 1175.71 729.255 1176.02 729.959 1176.1C730.684 1176.19 731.591 1176.23 732.679 1176.23ZM762.989 1168.1C766.147 1168.1 768.461 1168.65 769.933 1169.74C771.427 1170.82 772.173 1172.43 772.173 1174.57V1174.66C772.173 1176.69 771.576 1178.26 770.381 1179.37C769.208 1180.46 767.192 1181 764.333 1181C763.736 1181 763.299 1180.99 763.021 1180.97V1181H748.653L748.589 1169H744.365V1163.56H755.917L755.949 1168.1H762.925H762.989ZM762.093 1176.81C762.904 1176.81 763.544 1176.77 764.013 1176.68C764.483 1176.59 764.877 1176.38 765.197 1176.04C765.517 1175.7 765.677 1175.17 765.677 1174.44C765.677 1173.69 765.507 1173.16 765.165 1172.84C764.845 1172.52 764.461 1172.34 764.013 1172.3C763.565 1172.23 762.872 1172.2 761.933 1172.2H761.901H755.949L755.981 1176.78C759.16 1176.78 760.931 1176.79 761.293 1176.81H762.093ZM797.412 1173H780.356C780.505 1174.34 781.006 1175.45 781.86 1176.33C782.734 1177.18 783.918 1177.61 785.412 1177.61C786.628 1177.61 787.705 1177.32 788.644 1176.74C789.604 1176.15 790.084 1175.24 790.084 1174.02H797.412C797.412 1176.5 796.345 1178.39 794.212 1179.69C792.1 1180.99 789.156 1181.64 785.38 1181.64C783.054 1181.64 780.942 1181.25 779.044 1180.46C777.145 1179.67 775.641 1178.56 774.532 1177.13C773.422 1175.68 772.868 1174.02 772.868 1172.17C772.868 1170.29 773.412 1168.64 774.5 1167.21C775.609 1165.76 777.113 1164.65 779.012 1163.88C780.932 1163.09 783.054 1162.7 785.38 1162.7C787.769 1162.7 789.86 1163.08 791.652 1163.85C793.465 1164.62 794.873 1165.7 795.876 1167.11C796.878 1168.5 797.39 1170.13 797.412 1172.01V1172.17H797.476H797.412V1173ZM785.38 1166.6C783.972 1166.6 782.894 1166.9 782.148 1167.5C781.401 1168.09 780.889 1168.93 780.612 1169.99H789.892C789.657 1168.93 789.188 1168.09 788.484 1167.5C787.78 1166.9 786.745 1166.6 785.38 1166.6ZM825.964 1175.85H829.132V1184.07H821.74V1181.03L805.26 1181V1184.07H797.868V1175.85H800.844C801.548 1174.78 802.07 1173.73 802.412 1172.68C802.753 1171.63 802.977 1170.44 803.084 1169.1C803.212 1167.75 803.276 1165.91 803.276 1163.56H825.932L825.964 1175.85ZM810.476 1168.46C810.433 1170.16 810.294 1171.57 810.06 1172.68C809.825 1173.79 809.43 1174.85 808.876 1175.85H818.604V1168.49L810.476 1168.46ZM837.452 1173.61L846.764 1163.56H854.124V1181H846.764V1170.92L837.452 1181H830.316V1163.56H837.452V1173.61ZM871.848 1169.86V1163.56H879.176V1181H871.848V1174.5H862.92V1181H855.816V1163.56H862.92V1169.86H871.848ZM897.999 1180.97L897.967 1176.52H893.487L888.591 1180.97H880.751L886.159 1176.01C884.367 1175.56 882.97 1174.83 881.967 1173.83C880.964 1172.81 880.463 1171.54 880.463 1170.02V1169.9C880.463 1168.64 880.879 1167.53 881.711 1166.57C882.564 1165.61 883.748 1164.86 885.263 1164.33C886.799 1163.79 888.559 1163.53 890.543 1163.53H904.943L905.007 1180.97H897.999ZM892.687 1167.91C891.428 1167.91 890.479 1167.94 889.839 1168.01C889.22 1168.07 888.719 1168.26 888.335 1168.58C887.951 1168.88 887.759 1169.37 887.759 1170.06C887.759 1170.7 887.951 1171.17 888.335 1171.46C888.719 1171.74 889.22 1171.91 889.839 1171.98C890.479 1172.04 891.428 1172.07 892.687 1172.07H892.719H897.967V1167.94C895.62 1167.94 894.212 1167.93 893.743 1167.91H892.687ZM930.724 1173H913.668C913.817 1174.34 914.319 1175.45 915.172 1176.33C916.047 1177.18 917.231 1177.61 918.724 1177.61C919.94 1177.61 921.017 1177.32 921.956 1176.74C922.916 1176.15 923.396 1175.24 923.396 1174.02H930.724C930.724 1176.5 929.657 1178.39 927.524 1179.69C925.412 1180.99 922.468 1181.64 918.692 1181.64C916.367 1181.64 914.255 1181.25 912.356 1180.46C910.457 1179.67 908.953 1178.56 907.844 1177.13C906.735 1175.68 906.18 1174.02 906.18 1172.17C906.18 1170.29 906.724 1168.64 907.812 1167.21C908.921 1165.76 910.425 1164.65 912.324 1163.88C914.244 1163.09 916.367 1162.7 918.692 1162.7C921.081 1162.7 923.172 1163.08 924.964 1163.85C926.777 1164.62 928.185 1165.7 929.188 1167.11C930.191 1168.5 930.703 1170.13 930.724 1172.01V1172.17H930.788H930.724V1173ZM918.692 1166.6C917.284 1166.6 916.207 1166.9 915.46 1167.5C914.713 1168.09 914.201 1168.93 913.924 1169.99H923.204C922.969 1168.93 922.5 1168.09 921.796 1167.5C921.092 1166.9 920.057 1166.6 918.692 1166.6ZM964.869 1163.56V1181H957.509V1172.1L951.941 1181H945.221L939.333 1172.1V1181H931.973V1163.56H940.389L948.581 1175.91L956.773 1163.56H964.869ZM993.622 1163.56V1168.55H984.438V1181H976.598V1163.56H993.622ZM1006.63 1162.82C1008.94 1162.82 1011.02 1163.23 1012.87 1164.04C1014.73 1164.85 1016.18 1165.98 1017.22 1167.43C1018.27 1168.86 1018.79 1170.47 1018.79 1172.26C1018.79 1174.03 1018.26 1175.65 1017.19 1177.1C1016.15 1178.53 1014.7 1179.65 1012.84 1180.46C1011.01 1181.27 1008.94 1181.67 1006.63 1181.67C1004.41 1181.67 1002.33 1181.27 1000.39 1180.46C998.451 1179.62 996.894 1178.49 995.721 1177.06C994.569 1175.61 993.993 1174.01 993.993 1172.26C993.993 1170.49 994.569 1168.89 995.721 1167.46C996.894 1166.01 998.441 1164.88 1000.36 1164.07C1002.3 1163.24 1004.39 1162.82 1006.63 1162.82ZM1006.63 1177.1C1007.49 1177.1 1008.28 1176.91 1009 1176.55C1009.75 1176.19 1010.34 1175.65 1010.79 1174.92C1011.24 1174.17 1011.46 1173.29 1011.46 1172.26C1011.46 1171.24 1011.24 1170.37 1010.79 1169.64C1010.34 1168.89 1009.75 1168.34 1009 1167.98C1008.28 1167.61 1007.49 1167.43 1006.63 1167.43C1005.8 1167.43 1004.98 1167.62 1004.17 1168.01C1003.38 1168.37 1002.73 1168.91 1002.22 1169.64C1001.7 1170.37 1001.45 1171.24 1001.45 1172.26C1001.45 1173.29 1001.7 1174.16 1002.22 1174.89C1002.73 1175.61 1003.38 1176.17 1004.17 1176.55C1004.98 1176.91 1005.8 1177.1 1006.63 1177.1ZM1019.49 1172.39C1019.49 1170.6 1020.03 1168.99 1021.09 1167.56C1022.16 1166.11 1023.62 1164.98 1025.48 1164.17C1027.33 1163.36 1029.38 1162.95 1031.62 1162.95C1033.75 1162.95 1035.63 1163.28 1037.25 1163.94C1038.9 1164.58 1040.22 1165.49 1041.22 1166.66C1042.22 1167.84 1042.88 1169.19 1043.2 1170.73H1035.84C1035.61 1169.77 1035.12 1169 1034.37 1168.42C1033.63 1167.85 1032.72 1167.56 1031.65 1167.56C1030.27 1167.56 1029.14 1168.01 1028.26 1168.9C1027.39 1169.78 1026.95 1170.94 1026.95 1172.39C1026.95 1173.8 1027.38 1174.96 1028.23 1175.88C1029.08 1176.78 1030.2 1177.22 1031.59 1177.22C1032.68 1177.22 1033.59 1176.94 1034.34 1176.36C1035.09 1175.78 1035.58 1175.03 1035.81 1174.09H1043.17C1042.94 1175.54 1042.3 1176.85 1041.25 1178.02C1040.21 1179.2 1038.84 1180.13 1037.16 1180.81C1035.49 1181.49 1033.65 1181.83 1031.62 1181.83C1029.4 1181.83 1027.36 1181.43 1025.51 1180.62C1023.65 1179.78 1022.18 1178.65 1021.09 1177.22C1020.03 1175.77 1019.49 1174.16 1019.49 1172.39ZM1069.01 1163.56L1058.26 1184.94C1057.55 1186.34 1056.19 1187.25 1054.16 1187.66C1052.16 1188.06 1049.9 1188.26 1047.38 1188.26V1182.41C1048.59 1182.41 1049.44 1182.33 1049.91 1182.18C1050.38 1182.03 1050.61 1181.82 1050.61 1181.54C1050.61 1181.46 1050.57 1181.31 1050.48 1181.1L1041.49 1163.56H1049.36L1055.31 1176.46L1061.14 1163.56H1069.01ZM1092.74 1175.85H1095.91V1184.07H1088.52V1181.03L1072.04 1181V1184.07H1064.65V1175.85H1067.62C1068.33 1174.78 1068.85 1173.73 1069.19 1172.68C1069.53 1171.63 1069.76 1170.44 1069.86 1169.1C1069.99 1167.75 1070.06 1165.91 1070.06 1163.56H1092.71L1092.74 1175.85ZM1077.26 1168.46C1077.21 1170.16 1077.08 1171.57 1076.84 1172.68C1076.61 1173.79 1076.21 1174.85 1075.66 1175.85H1085.38V1168.49L1077.26 1168.46ZM1108.71 1162.79C1111.76 1162.79 1114.51 1163.3 1116.94 1164.33C1119.37 1165.35 1120.59 1167.15 1120.59 1169.74V1181H1113.61L1113.07 1178.73V1178.57C1112.53 1179.53 1111.4 1180.23 1109.67 1180.68C1107.97 1181.13 1106.1 1181.35 1104.07 1181.35C1102.45 1181.35 1100.83 1181 1099.21 1180.3C1097.59 1179.57 1096.78 1178.07 1096.78 1175.78C1096.78 1172.18 1099.13 1170.38 1103.85 1170.38C1106.88 1170.38 1108.99 1170.35 1110.19 1170.31C1111.38 1170.25 1112.17 1170.14 1112.55 1169.99C1112.94 1169.82 1113.14 1169.52 1113.16 1169.1V1168.68C1113.14 1167.98 1112.67 1167.46 1111.75 1167.14C1110.86 1166.8 1109.83 1166.63 1108.68 1166.63C1107.49 1166.65 1106.46 1166.88 1105.61 1167.3C1104.78 1167.73 1104.36 1168.38 1104.36 1169.26H1096.97C1096.97 1167.63 1097.61 1166.34 1098.89 1165.38C1100.17 1164.4 1101.69 1163.73 1103.47 1163.37C1105.26 1162.98 1107.01 1162.79 1108.71 1162.79ZM1108.23 1176.68C1109.81 1176.68 1111.01 1176.33 1111.82 1175.62C1112.63 1174.92 1113.07 1174.02 1113.13 1172.94V1172.49C1112.32 1172.83 1111.03 1173 1109.26 1173C1107.42 1173 1106.13 1173.13 1105.39 1173.38C1104.66 1173.64 1104.29 1174.11 1104.27 1174.79C1104.33 1175.43 1104.66 1175.91 1105.26 1176.23C1105.88 1176.53 1106.87 1176.68 1108.23 1176.68ZM1146.35 1172.68C1146.31 1174.19 1145.92 1175.63 1145.2 1177C1144.49 1178.37 1143.5 1179.47 1142.22 1180.33C1140.94 1181.16 1139.49 1181.58 1137.87 1181.58C1134.18 1181.58 1131.43 1180.74 1129.61 1179.08V1187.08H1122.25V1163.56H1129.01L1129.42 1165.8C1131.21 1163.97 1134.03 1163.09 1137.87 1163.18C1139.51 1163.18 1140.96 1163.58 1142.22 1164.39C1143.5 1165.2 1144.5 1166.31 1145.23 1167.72C1145.96 1169.13 1146.33 1170.71 1146.35 1172.46V1172.55V1172.68ZM1134.19 1177.22C1135.68 1177.22 1136.84 1176.77 1137.65 1175.85C1138.48 1174.91 1138.92 1173.8 1138.96 1172.52C1138.92 1171.05 1138.49 1169.84 1137.68 1168.9C1136.89 1167.94 1135.73 1167.46 1134.19 1167.46C1133.32 1167.46 1132.53 1167.69 1131.82 1168.14C1131.14 1168.56 1130.6 1169.15 1130.19 1169.9C1129.81 1170.62 1129.61 1171.4 1129.61 1172.23V1172.3C1129.61 1173.79 1130.03 1174.98 1130.86 1175.88C1131.72 1176.78 1132.82 1177.22 1134.19 1177.22ZM1147.24 1172.39C1147.24 1170.6 1147.78 1168.99 1148.84 1167.56C1149.91 1166.11 1151.37 1164.98 1153.23 1164.17C1155.08 1163.36 1157.13 1162.95 1159.37 1162.95C1161.5 1162.95 1163.38 1163.28 1165 1163.94C1166.65 1164.58 1167.97 1165.49 1168.97 1166.66C1169.97 1167.84 1170.63 1169.19 1170.95 1170.73H1163.59C1163.36 1169.77 1162.87 1169 1162.12 1168.42C1161.38 1167.85 1160.47 1167.56 1159.4 1167.56C1158.02 1167.56 1156.89 1168.01 1156.01 1168.9C1155.14 1169.78 1154.7 1170.94 1154.7 1172.39C1154.7 1173.8 1155.13 1174.96 1155.98 1175.88C1156.83 1176.78 1157.95 1177.22 1159.34 1177.22C1160.43 1177.22 1161.34 1176.94 1162.09 1176.36C1162.84 1175.78 1163.33 1175.03 1163.56 1174.09H1170.92C1170.69 1175.54 1170.05 1176.85 1169 1178.02C1167.96 1179.2 1166.59 1180.13 1164.91 1180.81C1163.24 1181.49 1161.4 1181.83 1159.37 1181.83C1157.15 1181.83 1155.11 1181.43 1153.26 1180.62C1151.4 1179.78 1149.93 1178.65 1148.84 1177.22C1147.78 1175.77 1147.24 1174.16 1147.24 1172.39ZM1195.05 1163.56V1169H1187.08V1181H1179.72V1169H1171.66V1163.56H1195.05ZM1203.77 1174.79C1203.74 1174.92 1203.73 1175.11 1203.73 1175.37L1203.77 1174.79ZM1217.11 1171.88C1218.5 1172.16 1219.53 1172.63 1220.21 1173.29C1220.92 1173.93 1221.27 1174.86 1221.27 1176.07V1176.14C1221.27 1177.84 1220.5 1179.08 1218.97 1179.85C1217.45 1180.59 1215.16 1180.99 1212.09 1181.03H1212.02H1211.22H1196.6V1163.56H1213.01V1163.59H1213.08C1215.23 1163.59 1216.89 1163.95 1218.04 1164.68C1219.21 1165.41 1219.8 1166.46 1219.8 1167.85V1167.94C1219.8 1168.97 1219.57 1169.8 1219.13 1170.44C1218.7 1171.08 1218.03 1171.56 1217.11 1171.88ZM1209.46 1170.47C1210.25 1170.47 1210.85 1170.45 1211.25 1170.41C1211.66 1170.37 1212 1170.23 1212.28 1169.99C1212.55 1169.76 1212.69 1169.37 1212.69 1168.84C1212.69 1168.35 1212.55 1168 1212.28 1167.78C1212.02 1167.55 1211.68 1167.41 1211.25 1167.37C1210.85 1167.3 1210.25 1167.27 1209.46 1167.27H1203.77V1170.44C1206.33 1170.44 1207.88 1170.45 1208.44 1170.47C1209.01 1170.47 1209.32 1170.47 1209.37 1170.47H1209.46ZM1210.2 1176.97C1211.14 1176.97 1211.85 1176.95 1212.34 1176.9C1212.85 1176.84 1213.27 1176.69 1213.59 1176.46C1213.91 1176.22 1214.07 1175.84 1214.07 1175.3C1214.07 1174.77 1213.91 1174.39 1213.59 1174.15C1213.27 1173.92 1212.85 1173.78 1212.34 1173.74C1211.85 1173.67 1211.14 1173.64 1210.2 1173.64H1210.17H1203.77V1176.97H1210.2ZM1234.6 1162.82C1236.91 1162.82 1238.99 1163.23 1240.84 1164.04C1242.7 1164.85 1244.15 1165.98 1245.19 1167.43C1246.24 1168.86 1246.76 1170.47 1246.76 1172.26C1246.76 1174.03 1246.23 1175.65 1245.16 1177.1C1244.12 1178.53 1242.67 1179.65 1240.81 1180.46C1238.97 1181.27 1236.91 1181.67 1234.6 1181.67C1232.38 1181.67 1230.3 1181.27 1228.36 1180.46C1226.42 1179.62 1224.86 1178.49 1223.69 1177.06C1222.54 1175.61 1221.96 1174.01 1221.96 1172.26C1221.96 1170.49 1222.54 1168.89 1223.69 1167.46C1224.86 1166.01 1226.41 1164.88 1228.33 1164.07C1230.27 1163.24 1232.36 1162.82 1234.6 1162.82ZM1234.6 1177.1C1235.45 1177.1 1236.24 1176.91 1236.97 1176.55C1237.72 1176.19 1238.31 1175.65 1238.76 1174.92C1239.21 1174.17 1239.43 1173.29 1239.43 1172.26C1239.43 1171.24 1239.21 1170.37 1238.76 1169.64C1238.31 1168.89 1237.72 1168.34 1236.97 1167.98C1236.24 1167.61 1235.45 1167.43 1234.6 1167.43C1233.77 1167.43 1232.95 1167.62 1232.14 1168.01C1231.35 1168.37 1230.7 1168.91 1230.19 1169.64C1229.67 1170.37 1229.42 1171.24 1229.42 1172.26C1229.42 1173.29 1229.67 1174.16 1230.19 1174.89C1230.7 1175.61 1231.35 1176.17 1232.14 1176.55C1232.95 1176.91 1233.77 1177.1 1234.6 1177.1ZM1247.91 1181V1175.08H1254.85V1181L1251.85 1184.62H1248.01L1251.01 1181H1247.91ZM1290.86 1172.94V1172.97C1290.83 1175.83 1289.73 1177.97 1287.53 1179.4C1285.35 1180.81 1282.48 1181.51 1278.92 1181.51C1274.95 1181.51 1271.92 1180.77 1269.83 1179.27C1267.74 1177.78 1266.48 1175.31 1266.06 1171.88C1266.03 1171.56 1266.02 1171.08 1266.02 1170.44C1266.02 1166.96 1266.7 1164.35 1268.04 1162.6C1269.38 1160.83 1271.01 1159.7 1272.9 1159.21C1274.82 1158.7 1277.05 1158.44 1279.59 1158.44H1279.66C1280.57 1158.48 1281.65 1158.44 1282.89 1158.31C1284.15 1158.18 1284.78 1157.85 1284.78 1157.32L1291.27 1157.35C1291.27 1159.21 1290.72 1160.59 1289.61 1161.51C1288.52 1162.41 1287.15 1162.98 1285.51 1163.24C1283.87 1163.47 1281.81 1163.59 1279.34 1163.59C1276.43 1163.59 1274.56 1164.67 1273.7 1166.82C1274.75 1166.35 1275.91 1166.05 1277.19 1165.9C1278.47 1165.73 1279.85 1165.64 1281.32 1165.64C1284.18 1165.64 1286.47 1166.28 1288.2 1167.56C1289.95 1168.82 1290.83 1170.6 1290.86 1172.9V1172.94ZM1279.3 1176.23C1280.37 1176.23 1281.34 1176.02 1282.22 1175.59C1283.11 1175.14 1283.56 1174.24 1283.56 1172.87C1283.56 1171.59 1283.13 1170.7 1282.28 1170.18C1281.43 1169.65 1280.37 1169.38 1279.11 1169.38C1277.28 1169.41 1275.92 1169.62 1275.05 1170.02C1274.19 1170.43 1273.69 1171.05 1273.54 1171.88C1273.52 1172.05 1273.51 1172.29 1273.51 1172.58C1273.51 1173.78 1273.84 1174.64 1274.5 1175.18C1275.19 1175.71 1275.88 1176.02 1276.58 1176.1C1277.31 1176.19 1278.22 1176.23 1279.3 1176.23ZM1299.76 1173.61L1309.08 1163.56H1316.44V1181H1309.08V1170.92L1299.76 1181H1292.63V1163.56H1299.76V1173.61ZM1341.2 1175.05C1341.18 1177.22 1340.12 1178.85 1338.03 1179.91C1335.94 1180.96 1333.15 1181.48 1329.65 1181.48C1327.11 1181.48 1324.93 1181.12 1323.12 1180.39C1321.31 1179.67 1319.94 1178.72 1319.02 1177.54C1318.11 1176.37 1317.65 1175.14 1317.65 1173.86H1324.91C1324.91 1174.85 1325.37 1175.58 1326.29 1176.07C1327.21 1176.56 1328.33 1176.83 1329.65 1176.87C1330.82 1176.94 1331.81 1176.82 1332.62 1176.52C1333.46 1176.22 1333.87 1175.71 1333.87 1174.98C1333.85 1174.51 1333.57 1174.18 1333.04 1173.99C1332.51 1173.8 1331.62 1173.7 1330.38 1173.7H1327.38V1170.18H1330.38C1331.71 1170.18 1332.6 1170.08 1333.07 1169.86C1333.54 1169.65 1333.78 1169.35 1333.78 1168.97C1333.78 1168.41 1333.37 1168.01 1332.56 1167.75C1331.77 1167.47 1330.8 1167.34 1329.65 1167.34C1328.33 1167.34 1327.21 1167.49 1326.29 1167.78C1325.37 1168.08 1324.91 1168.56 1324.91 1169.22H1317.65C1317.65 1167.67 1318.3 1166.43 1319.6 1165.51C1320.92 1164.57 1322.49 1163.92 1324.3 1163.56C1326.14 1163.18 1327.92 1162.98 1329.65 1162.98C1331.33 1162.98 1333.01 1163.15 1334.67 1163.5C1336.34 1163.84 1337.76 1164.45 1338.93 1165.32C1340.1 1166.17 1340.69 1167.35 1340.69 1168.84C1340.69 1170.21 1339.85 1171.18 1338.16 1171.75C1340.19 1172.35 1341.2 1173.44 1341.2 1175.02V1175.05ZM1358.41 1169.86V1163.56H1365.74V1181H1358.41V1174.5H1349.48V1181H1342.38V1163.56H1349.48V1169.86H1358.41ZM1391.51 1173H1374.45C1374.6 1174.34 1375.1 1175.45 1375.95 1176.33C1376.83 1177.18 1378.01 1177.61 1379.51 1177.61C1380.72 1177.61 1381.8 1177.32 1382.74 1176.74C1383.7 1176.15 1384.18 1175.24 1384.18 1174.02H1391.51C1391.51 1176.5 1390.44 1178.39 1388.31 1179.69C1386.19 1180.99 1383.25 1181.64 1379.47 1181.64C1377.15 1181.64 1375.04 1181.25 1373.14 1180.46C1371.24 1179.67 1369.73 1178.56 1368.63 1177.13C1367.52 1175.68 1366.96 1174.02 1366.96 1172.17C1366.96 1170.29 1367.51 1168.64 1368.59 1167.21C1369.7 1165.76 1371.21 1164.65 1373.11 1163.88C1375.03 1163.09 1377.15 1162.7 1379.47 1162.7C1381.86 1162.7 1383.95 1163.08 1385.75 1163.85C1387.56 1164.62 1388.97 1165.7 1389.97 1167.11C1390.97 1168.5 1391.48 1170.13 1391.51 1172.01V1172.17H1391.57H1391.51V1173ZM1379.47 1166.6C1378.07 1166.6 1376.99 1166.9 1376.24 1167.5C1375.49 1168.09 1374.98 1168.93 1374.71 1169.99H1383.99C1383.75 1168.93 1383.28 1168.09 1382.58 1167.5C1381.87 1166.9 1380.84 1166.6 1379.47 1166.6ZM1392.27 1172.39C1392.27 1170.6 1392.81 1168.99 1393.87 1167.56C1394.94 1166.11 1396.4 1164.98 1398.26 1164.17C1400.11 1163.36 1402.16 1162.95 1404.4 1162.95C1406.54 1162.95 1408.41 1163.28 1410.03 1163.94C1411.68 1164.58 1413 1165.49 1414 1166.66C1415 1167.84 1415.67 1169.19 1415.99 1170.73H1408.63C1408.39 1169.77 1407.9 1169 1407.15 1168.42C1406.41 1167.85 1405.5 1167.56 1404.43 1167.56C1403.05 1167.56 1401.92 1168.01 1401.04 1168.9C1400.17 1169.78 1399.73 1170.94 1399.73 1172.39C1399.73 1173.8 1400.16 1174.96 1401.01 1175.88C1401.86 1176.78 1402.98 1177.22 1404.37 1177.22C1405.46 1177.22 1406.38 1176.94 1407.12 1176.36C1407.87 1175.78 1408.36 1175.03 1408.59 1174.09H1415.95C1415.72 1175.54 1415.08 1176.85 1414.03 1178.02C1412.99 1179.2 1411.62 1180.13 1409.94 1180.81C1408.27 1181.49 1406.43 1181.83 1404.4 1181.83C1402.18 1181.83 1400.15 1181.43 1398.29 1180.62C1396.43 1179.78 1394.96 1178.65 1393.87 1177.22C1392.81 1175.77 1392.27 1174.16 1392.27 1172.39ZM1434.36 1173.61L1443.67 1163.56H1451.03V1181H1443.67V1170.92L1434.36 1181H1427.22V1163.56H1434.36V1173.61ZM1474.91 1162.82C1477.22 1162.82 1479.3 1163.23 1481.15 1164.04C1483.01 1164.85 1484.46 1165.98 1485.51 1167.43C1486.55 1168.86 1487.07 1170.47 1487.07 1172.26C1487.07 1174.03 1486.54 1175.65 1485.47 1177.1C1484.43 1178.53 1482.98 1179.65 1481.12 1180.46C1479.29 1181.27 1477.22 1181.67 1474.91 1181.67C1472.7 1181.67 1470.62 1181.27 1468.67 1180.46C1466.73 1179.62 1465.18 1178.49 1464 1177.06C1462.85 1175.61 1462.27 1174.01 1462.27 1172.26C1462.27 1170.49 1462.85 1168.89 1464 1167.46C1465.18 1166.01 1466.72 1164.88 1468.64 1164.07C1470.58 1163.24 1472.67 1162.82 1474.91 1162.82ZM1474.91 1177.1C1475.77 1177.1 1476.56 1176.91 1477.28 1176.55C1478.03 1176.19 1478.63 1175.65 1479.07 1174.92C1479.52 1174.17 1479.75 1173.29 1479.75 1172.26C1479.75 1171.24 1479.52 1170.37 1479.07 1169.64C1478.63 1168.89 1478.03 1168.34 1477.28 1167.98C1476.56 1167.61 1475.77 1167.43 1474.91 1167.43C1474.08 1167.43 1473.26 1167.62 1472.45 1168.01C1471.66 1168.37 1471.01 1168.91 1470.5 1169.64C1469.99 1170.37 1469.73 1171.24 1469.73 1172.26C1469.73 1173.29 1469.99 1174.16 1470.5 1174.89C1471.01 1175.61 1471.66 1176.17 1472.45 1176.55C1473.26 1176.91 1474.08 1177.1 1474.91 1177.1ZM1512.61 1172.94V1172.97C1512.58 1175.83 1511.48 1177.97 1509.28 1179.4C1507.1 1180.81 1504.23 1181.51 1500.67 1181.51C1496.7 1181.51 1493.67 1180.77 1491.58 1179.27C1489.49 1177.78 1488.23 1175.31 1487.81 1171.88C1487.78 1171.56 1487.77 1171.08 1487.77 1170.44C1487.77 1166.96 1488.45 1164.35 1489.79 1162.6C1491.13 1160.83 1492.76 1159.7 1494.65 1159.21C1496.57 1158.7 1498.8 1158.44 1501.34 1158.44H1501.41C1502.32 1158.48 1503.4 1158.44 1504.64 1158.31C1505.9 1158.18 1506.53 1157.85 1506.53 1157.32L1513.02 1157.35C1513.02 1159.21 1512.47 1160.59 1511.36 1161.51C1510.27 1162.41 1508.9 1162.98 1507.26 1163.24C1505.62 1163.47 1503.56 1163.59 1501.09 1163.59C1498.18 1163.59 1496.31 1164.67 1495.45 1166.82C1496.5 1166.35 1497.66 1166.05 1498.94 1165.9C1500.22 1165.73 1501.6 1165.64 1503.07 1165.64C1505.93 1165.64 1508.22 1166.28 1509.95 1167.56C1511.7 1168.82 1512.58 1170.6 1512.61 1172.9V1172.94ZM1501.05 1176.23C1502.12 1176.23 1503.09 1176.02 1503.97 1175.59C1504.86 1175.14 1505.31 1174.24 1505.31 1172.87C1505.31 1171.59 1504.88 1170.7 1504.03 1170.18C1503.18 1169.65 1502.12 1169.38 1500.86 1169.38C1499.03 1169.41 1497.67 1169.62 1496.8 1170.02C1495.94 1170.43 1495.44 1171.05 1495.29 1171.88C1495.27 1172.05 1495.26 1172.29 1495.26 1172.58C1495.26 1173.78 1495.59 1174.64 1496.25 1175.18C1496.94 1175.71 1497.63 1176.02 1498.33 1176.1C1499.06 1176.19 1499.97 1176.23 1501.05 1176.23ZM1550.73 1163.56V1176.84H1553.74V1184.52H1546.28V1181H1514.38V1163.56H1521.74V1175.88H1528.87V1163.56H1536.27V1175.88H1543.37V1163.56H1550.73ZM1577.94 1173H1560.89C1561.04 1174.34 1561.54 1175.45 1562.39 1176.33C1563.27 1177.18 1564.45 1177.61 1565.94 1177.61C1567.16 1177.61 1568.24 1177.32 1569.17 1176.74C1570.13 1176.15 1570.61 1175.24 1570.61 1174.02H1577.94C1577.94 1176.5 1576.88 1178.39 1574.74 1179.69C1572.63 1180.99 1569.69 1181.64 1565.91 1181.64C1563.59 1181.64 1561.47 1181.25 1559.57 1180.46C1557.68 1179.67 1556.17 1178.56 1555.06 1177.13C1553.95 1175.68 1553.4 1174.02 1553.4 1172.17C1553.4 1170.29 1553.94 1168.64 1555.03 1167.21C1556.14 1165.76 1557.64 1164.65 1559.54 1163.88C1561.46 1163.09 1563.59 1162.7 1565.91 1162.7C1568.3 1162.7 1570.39 1163.08 1572.18 1163.85C1574 1164.62 1575.4 1165.7 1576.41 1167.11C1577.41 1168.5 1577.92 1170.13 1577.94 1172.01V1172.17H1578.01H1577.94V1173ZM1565.91 1166.6C1564.5 1166.6 1563.43 1166.9 1562.68 1167.5C1561.93 1168.09 1561.42 1168.93 1561.14 1169.99H1570.42C1570.19 1168.93 1569.72 1168.09 1569.01 1167.5C1568.31 1166.9 1567.28 1166.6 1565.91 1166.6ZM1578.71 1172.39C1578.71 1170.6 1579.24 1168.99 1580.31 1167.56C1581.38 1166.11 1582.84 1164.98 1584.7 1164.17C1586.55 1163.36 1588.6 1162.95 1590.84 1162.95C1592.97 1162.95 1594.85 1163.28 1596.47 1163.94C1598.11 1164.58 1599.44 1165.49 1600.44 1166.66C1601.44 1167.84 1602.1 1169.19 1602.42 1170.73H1595.06C1594.83 1169.77 1594.34 1169 1593.59 1168.42C1592.84 1167.85 1591.94 1167.56 1590.87 1167.56C1589.48 1167.56 1588.35 1168.01 1587.48 1168.9C1586.6 1169.78 1586.17 1170.94 1586.17 1172.39C1586.17 1173.8 1586.59 1174.96 1587.45 1175.88C1588.3 1176.78 1589.42 1177.22 1590.81 1177.22C1591.9 1177.22 1592.81 1176.94 1593.56 1176.36C1594.31 1175.78 1594.8 1175.03 1595.03 1174.09H1602.39C1602.16 1175.54 1601.52 1176.85 1600.47 1178.02C1599.43 1179.2 1598.06 1180.13 1596.38 1180.81C1594.71 1181.49 1592.87 1181.83 1590.84 1181.83C1588.62 1181.83 1586.58 1181.43 1584.73 1180.62C1582.87 1179.78 1581.4 1178.65 1580.31 1177.22C1579.24 1175.77 1578.71 1174.16 1578.71 1172.39ZM1626.52 1163.56V1169H1618.55V1181H1611.19V1169H1603.13V1163.56H1626.52ZM1635.23 1174.79C1635.21 1174.92 1635.2 1175.11 1635.2 1175.37L1635.23 1174.79ZM1648.58 1171.88C1649.97 1172.16 1651 1172.63 1651.68 1173.29C1652.39 1173.93 1652.74 1174.86 1652.74 1176.07V1176.14C1652.74 1177.84 1651.97 1179.08 1650.43 1179.85C1648.92 1180.59 1646.63 1180.99 1643.55 1181.03H1643.49H1642.69H1628.07V1163.56H1644.48V1163.59H1644.55C1646.7 1163.59 1648.35 1163.95 1649.51 1164.68C1650.68 1165.41 1651.27 1166.46 1651.27 1167.85V1167.94C1651.27 1168.97 1651.04 1169.8 1650.59 1170.44C1650.17 1171.08 1649.5 1171.56 1648.58 1171.88ZM1640.93 1170.47C1641.72 1170.47 1642.32 1170.45 1642.72 1170.41C1643.13 1170.37 1643.47 1170.23 1643.75 1169.99C1644.02 1169.76 1644.16 1169.37 1644.16 1168.84C1644.16 1168.35 1644.02 1168 1643.75 1167.78C1643.49 1167.55 1643.15 1167.41 1642.72 1167.37C1642.32 1167.3 1641.72 1167.27 1640.93 1167.27H1635.23V1170.44C1637.79 1170.44 1639.35 1170.45 1639.91 1170.47C1640.48 1170.47 1640.79 1170.47 1640.83 1170.47H1640.93ZM1641.67 1176.97C1642.61 1176.97 1643.32 1176.95 1643.81 1176.9C1644.32 1176.84 1644.74 1176.69 1645.06 1176.46C1645.38 1176.22 1645.54 1175.84 1645.54 1175.3C1645.54 1174.77 1645.38 1174.39 1645.06 1174.15C1644.74 1173.92 1644.32 1173.78 1643.81 1173.74C1643.32 1173.67 1642.61 1173.64 1641.67 1173.64H1641.63H1635.23V1176.97H1641.67ZM1666.07 1162.82C1668.37 1162.82 1670.45 1163.23 1672.31 1164.04C1674.17 1164.85 1675.62 1165.98 1676.66 1167.43C1677.71 1168.86 1678.23 1170.47 1678.23 1172.26C1678.23 1174.03 1677.7 1175.65 1676.63 1177.1C1675.58 1178.53 1674.13 1179.65 1672.28 1180.46C1670.44 1181.27 1668.37 1181.67 1666.07 1181.67C1663.85 1181.67 1661.77 1181.27 1659.83 1180.46C1657.89 1179.62 1656.33 1178.49 1655.16 1177.06C1654.01 1175.61 1653.43 1174.01 1653.43 1172.26C1653.43 1170.49 1654.01 1168.89 1655.16 1167.46C1656.33 1166.01 1657.88 1164.88 1659.8 1164.07C1661.74 1163.24 1663.83 1162.82 1666.07 1162.82ZM1666.07 1177.1C1666.92 1177.1 1667.71 1176.91 1668.44 1176.55C1669.18 1176.19 1669.78 1175.65 1670.23 1174.92C1670.68 1174.17 1670.9 1173.29 1670.9 1172.26C1670.9 1171.24 1670.68 1170.37 1670.23 1169.64C1669.78 1168.89 1669.18 1168.34 1668.44 1167.98C1667.71 1167.61 1666.92 1167.43 1666.07 1167.43C1665.24 1167.43 1664.42 1167.62 1663.61 1168.01C1662.82 1168.37 1662.17 1168.91 1661.65 1169.64C1661.14 1170.37 1660.89 1171.24 1660.89 1172.26C1660.89 1173.29 1661.14 1174.16 1661.65 1174.89C1662.17 1175.61 1662.82 1176.17 1663.61 1176.55C1664.42 1176.91 1665.24 1177.1 1666.07 1177.1ZM567.024 1216.39C567.024 1214.6 567.557 1212.99 568.624 1211.56C569.691 1210.11 571.152 1208.98 573.008 1208.17C574.864 1207.36 576.912 1206.95 579.152 1206.95C581.285 1206.95 583.163 1207.28 584.784 1207.94C586.427 1208.58 587.749 1209.49 588.752 1210.66C589.755 1211.84 590.416 1213.19 590.736 1214.73H583.376C583.141 1213.77 582.651 1213 581.904 1212.42C581.157 1211.85 580.251 1211.56 579.184 1211.56C577.797 1211.56 576.667 1212.01 575.792 1212.9C574.917 1213.78 574.48 1214.94 574.48 1216.39C574.48 1217.8 574.907 1218.96 575.76 1219.88C576.613 1220.78 577.733 1221.22 579.12 1221.22C580.208 1221.22 581.125 1220.94 581.872 1220.36C582.619 1219.78 583.109 1219.03 583.344 1218.09H590.704C590.469 1219.54 589.829 1220.85 588.784 1222.02C587.739 1223.2 586.373 1224.13 584.688 1224.81C583.024 1225.49 581.179 1225.83 579.152 1225.83C576.933 1225.83 574.896 1225.43 573.04 1224.62C571.184 1223.78 569.712 1222.65 568.624 1221.22C567.557 1219.77 567.024 1218.16 567.024 1216.39ZM604.101 1206.82C606.405 1206.82 608.485 1207.23 610.341 1208.04C612.197 1208.85 613.648 1209.98 614.693 1211.43C615.739 1212.86 616.261 1214.47 616.261 1216.26C616.261 1218.03 615.728 1219.65 614.661 1221.1C613.616 1222.53 612.165 1223.65 610.309 1224.46C608.475 1225.27 606.405 1225.67 604.101 1225.67C601.883 1225.67 599.803 1225.27 597.861 1224.46C595.92 1223.62 594.363 1222.49 593.189 1221.06C592.037 1219.61 591.461 1218.01 591.461 1216.26C591.461 1214.49 592.037 1212.89 593.189 1211.46C594.363 1210.01 595.909 1208.88 597.829 1208.07C599.771 1207.24 601.861 1206.82 604.101 1206.82ZM604.101 1221.1C604.955 1221.1 605.744 1220.91 606.469 1220.55C607.216 1220.19 607.813 1219.65 608.261 1218.92C608.709 1218.17 608.933 1217.29 608.933 1216.26C608.933 1215.24 608.709 1214.37 608.261 1213.64C607.813 1212.89 607.216 1212.34 606.469 1211.98C605.744 1211.61 604.955 1211.43 604.101 1211.43C603.269 1211.43 602.448 1211.62 601.637 1212.01C600.848 1212.37 600.197 1212.91 599.685 1213.64C599.173 1214.37 598.917 1215.24 598.917 1216.26C598.917 1217.29 599.173 1218.16 599.685 1218.89C600.197 1219.61 600.848 1220.17 601.637 1220.55C602.448 1220.91 603.269 1221.1 604.101 1221.1ZM640.513 1219.05C640.492 1221.22 639.436 1222.85 637.345 1223.91C635.255 1224.96 632.46 1225.48 628.961 1225.48C626.423 1225.48 624.247 1225.12 622.433 1224.39C620.62 1223.67 619.255 1222.72 618.337 1221.54C617.42 1220.37 616.961 1219.14 616.961 1217.86H624.225C624.225 1218.85 624.684 1219.58 625.601 1220.07C626.519 1220.56 627.639 1220.83 628.961 1220.87C630.135 1220.94 631.127 1220.82 631.937 1220.52C632.769 1220.22 633.185 1219.71 633.185 1218.98C633.164 1218.51 632.887 1218.18 632.353 1217.99C631.82 1217.8 630.935 1217.7 629.697 1217.7H626.689V1214.18H629.697C631.02 1214.18 631.916 1214.08 632.385 1213.86C632.855 1213.65 633.089 1213.35 633.089 1212.97C633.089 1212.41 632.684 1212.01 631.873 1211.75C631.084 1211.47 630.113 1211.34 628.961 1211.34C627.639 1211.34 626.519 1211.49 625.601 1211.78C624.684 1212.08 624.225 1212.56 624.225 1213.22H616.961C616.961 1211.67 617.612 1210.43 618.913 1209.51C620.236 1208.57 621.804 1207.92 623.617 1207.56C625.452 1207.18 627.233 1206.98 628.961 1206.98C630.647 1206.98 632.321 1207.15 633.985 1207.5C635.649 1207.84 637.068 1208.45 638.241 1209.32C639.415 1210.17 640.001 1211.35 640.001 1212.84C640.001 1214.21 639.159 1215.18 637.473 1215.75C639.5 1216.35 640.513 1217.44 640.513 1219.02V1219.05ZM669.307 1219.85H672.475V1228.07H665.083V1225.03L648.603 1225V1228.07H641.211V1219.85H644.187C644.891 1218.78 645.414 1217.73 645.755 1216.68C646.097 1215.63 646.321 1214.44 646.427 1213.1C646.555 1211.75 646.619 1209.91 646.619 1207.56H669.275L669.307 1219.85ZM653.819 1212.46C653.777 1214.16 653.638 1215.57 653.403 1216.68C653.169 1217.79 652.774 1218.85 652.219 1219.85H661.947V1212.49L653.819 1212.46ZM685.276 1206.79C688.327 1206.79 691.068 1207.3 693.5 1208.33C695.932 1209.35 697.148 1211.15 697.148 1213.74V1225H690.172L689.628 1222.73V1222.57C689.095 1223.53 687.964 1224.23 686.236 1224.68C684.529 1225.13 682.663 1225.35 680.636 1225.35C679.015 1225.35 677.393 1225 675.772 1224.3C674.151 1223.57 673.34 1222.07 673.34 1219.78C673.34 1216.18 675.697 1214.38 680.412 1214.38C683.441 1214.38 685.553 1214.35 686.748 1214.31C687.943 1214.25 688.732 1214.14 689.116 1213.99C689.5 1213.82 689.703 1213.52 689.724 1213.1V1212.68C689.703 1211.98 689.233 1211.46 688.316 1211.14C687.42 1210.8 686.396 1210.63 685.244 1210.63C684.049 1210.65 683.025 1210.88 682.172 1211.3C681.34 1211.73 680.924 1212.38 680.924 1213.26H673.532C673.532 1211.63 674.172 1210.34 675.452 1209.38C676.732 1208.4 678.257 1207.73 680.028 1207.37C681.82 1206.98 683.569 1206.79 685.276 1206.79ZM684.796 1220.68C686.375 1220.68 687.569 1220.33 688.38 1219.62C689.191 1218.92 689.628 1218.02 689.692 1216.94V1216.49C688.881 1216.83 687.591 1217 685.82 1217C683.985 1217 682.695 1217.13 681.948 1217.38C681.223 1217.64 680.849 1218.11 680.828 1218.79C680.892 1219.43 681.223 1219.91 681.82 1220.23C682.439 1220.53 683.431 1220.68 684.796 1220.68ZM705.984 1218.79C705.963 1218.92 705.952 1219.11 705.952 1219.37L705.984 1218.79ZM719.328 1215.88C720.715 1216.16 721.75 1216.63 722.432 1217.29C723.136 1217.93 723.488 1218.86 723.488 1220.07V1220.14C723.488 1221.84 722.72 1223.08 721.184 1223.85C719.67 1224.59 717.376 1224.99 714.304 1225.03H714.24H713.44H698.816V1207.56H715.232V1207.59H715.296C717.451 1207.59 719.104 1207.95 720.256 1208.68C721.43 1209.41 722.016 1210.46 722.016 1211.85V1211.94C722.016 1212.97 721.792 1213.8 721.344 1214.44C720.918 1215.08 720.246 1215.56 719.328 1215.88ZM711.68 1214.47C712.47 1214.47 713.067 1214.45 713.472 1214.41C713.878 1214.37 714.219 1214.23 714.496 1213.99C714.774 1213.76 714.912 1213.37 714.912 1212.84C714.912 1212.35 714.774 1212 714.496 1211.78C714.24 1211.55 713.899 1211.41 713.472 1211.37C713.067 1211.3 712.47 1211.27 711.68 1211.27H705.984V1214.44C708.544 1214.44 710.102 1214.45 710.656 1214.47C711.232 1214.47 711.542 1214.47 711.584 1214.47H711.68ZM712.416 1220.97C713.355 1220.97 714.07 1220.95 714.56 1220.9C715.072 1220.84 715.488 1220.69 715.808 1220.46C716.128 1220.22 716.288 1219.84 716.288 1219.3C716.288 1218.77 716.128 1218.39 715.808 1218.15C715.488 1217.92 715.072 1217.78 714.56 1217.74C714.07 1217.67 713.355 1217.64 712.416 1217.64H712.384H705.984V1220.97H712.416ZM736.276 1206.79C739.327 1206.79 742.068 1207.3 744.5 1208.33C746.932 1209.35 748.148 1211.15 748.148 1213.74V1225H741.172L740.628 1222.73V1222.57C740.095 1223.53 738.964 1224.23 737.236 1224.68C735.529 1225.13 733.663 1225.35 731.636 1225.35C730.015 1225.35 728.393 1225 726.772 1224.3C725.151 1223.57 724.34 1222.07 724.34 1219.78C724.34 1216.18 726.697 1214.38 731.412 1214.38C734.441 1214.38 736.553 1214.35 737.748 1214.31C738.943 1214.25 739.732 1214.14 740.116 1213.99C740.5 1213.82 740.703 1213.52 740.724 1213.1V1212.68C740.703 1211.98 740.233 1211.46 739.316 1211.14C738.42 1210.8 737.396 1210.63 736.244 1210.63C735.049 1210.65 734.025 1210.88 733.172 1211.3C732.34 1211.73 731.924 1212.38 731.924 1213.26H724.532C724.532 1211.63 725.172 1210.34 726.452 1209.38C727.732 1208.4 729.257 1207.73 731.028 1207.37C732.82 1206.98 734.569 1206.79 736.276 1206.79ZM735.796 1220.68C737.375 1220.68 738.569 1220.33 739.38 1219.62C740.191 1218.92 740.628 1218.02 740.692 1216.94V1216.49C739.881 1216.83 738.591 1217 736.82 1217C734.985 1217 733.695 1217.13 732.948 1217.38C732.223 1217.64 731.849 1218.11 731.828 1218.79C731.892 1219.43 732.223 1219.91 732.82 1220.23C733.439 1220.53 734.431 1220.68 735.796 1220.68ZM766.936 1224.97L766.904 1220.52H762.424L757.528 1224.97H749.688L755.096 1220.01C753.304 1219.56 751.907 1218.83 750.904 1217.83C749.902 1216.81 749.4 1215.54 749.4 1214.02V1213.9C749.4 1212.64 749.816 1211.53 750.648 1210.57C751.502 1209.61 752.686 1208.86 754.2 1208.33C755.736 1207.79 757.496 1207.53 759.48 1207.53H773.88L773.944 1224.97H766.936ZM761.624 1211.91C760.366 1211.91 759.416 1211.94 758.776 1212.01C758.158 1212.07 757.656 1212.26 757.272 1212.58C756.888 1212.88 756.696 1213.37 756.696 1214.06C756.696 1214.7 756.888 1215.17 757.272 1215.46C757.656 1215.74 758.158 1215.91 758.776 1215.98C759.416 1216.04 760.366 1216.07 761.624 1216.07H761.656H766.904V1211.94C764.558 1211.94 763.15 1211.93 762.68 1211.91H761.624ZM812.573 1207.56L801.821 1228.94C801.117 1230.34 799.752 1231.25 797.725 1231.66C795.72 1232.06 793.458 1232.26 790.941 1232.26V1226.41C792.157 1226.41 793 1226.33 793.469 1226.18C793.938 1226.03 794.173 1225.82 794.173 1225.54C794.173 1225.46 794.13 1225.31 794.045 1225.1L785.053 1207.56H792.925L798.877 1220.46L804.701 1207.56H812.573ZM846.556 1207.56V1225H839.196V1216.1L833.628 1225H826.908L821.02 1216.1V1225H813.66V1207.56H822.076L830.268 1219.91L838.46 1207.56H846.556ZM864.286 1213.86V1207.56H871.614V1225H864.286V1218.5H855.358V1225H848.254V1207.56H855.358V1213.86H864.286ZM887.748 1212.1C890.906 1212.1 893.22 1212.65 894.692 1213.74C896.186 1214.82 896.932 1216.43 896.932 1218.57V1218.66C896.932 1220.69 896.335 1222.26 895.14 1223.37C893.967 1224.46 891.951 1225 889.092 1225C888.495 1225 888.058 1224.99 887.78 1224.97V1225H873.412L873.316 1207.56H880.676L880.708 1212.1H887.684H887.748ZM897.892 1225V1207.56H905.252V1225H897.892ZM886.884 1220.81C887.695 1220.81 888.335 1220.77 888.804 1220.68C889.274 1220.59 889.668 1220.38 889.988 1220.04C890.308 1219.7 890.468 1219.17 890.468 1218.44C890.468 1217.69 890.298 1217.16 889.956 1216.84C889.636 1216.52 889.252 1216.34 888.804 1216.3C888.356 1216.23 887.663 1216.2 886.724 1216.2H886.692H880.708L880.74 1220.78C883.919 1220.78 885.7 1220.79 886.084 1220.81H886.884ZM931.005 1217H913.949C914.099 1218.34 914.6 1219.45 915.453 1220.33C916.328 1221.18 917.512 1221.61 919.005 1221.61C920.221 1221.61 921.299 1221.32 922.237 1220.74C923.197 1220.15 923.677 1219.24 923.677 1218.02H931.005C931.005 1220.5 929.939 1222.39 927.805 1223.69C925.693 1224.99 922.749 1225.64 918.973 1225.64C916.648 1225.64 914.536 1225.25 912.637 1224.46C910.739 1223.67 909.235 1222.56 908.125 1221.13C907.016 1219.68 906.461 1218.02 906.461 1216.17C906.461 1214.29 907.005 1212.64 908.093 1211.21C909.203 1209.76 910.707 1208.65 912.605 1207.88C914.525 1207.09 916.648 1206.7 918.973 1206.7C921.363 1206.7 923.453 1207.08 925.245 1207.85C927.059 1208.62 928.467 1209.7 929.469 1211.11C930.472 1212.5 930.984 1214.13 931.005 1216.01V1216.17H931.069H931.005V1217ZM918.973 1210.6C917.565 1210.6 916.488 1210.9 915.741 1211.5C914.995 1212.09 914.483 1212.93 914.205 1213.99H923.485C923.251 1212.93 922.781 1212.09 922.077 1211.5C921.373 1210.9 920.339 1210.6 918.973 1210.6ZM953.421 1206.95C955.661 1206.95 957.698 1207.36 959.533 1208.17C961.389 1208.98 962.85 1210.11 963.917 1211.56C964.984 1212.99 965.517 1214.6 965.517 1216.39C965.517 1218.16 964.973 1219.77 963.885 1221.22C962.818 1222.65 961.357 1223.78 959.501 1224.62C957.666 1225.43 955.64 1225.83 953.421 1225.83C951.394 1225.83 949.538 1225.49 947.853 1224.81C946.189 1224.13 944.824 1223.2 943.757 1222.02C942.712 1220.85 942.072 1219.54 941.837 1218.09H949.229C949.442 1219.05 949.922 1219.82 950.669 1220.39C951.437 1220.95 952.376 1221.22 953.485 1221.22C954.488 1221.22 955.362 1220.97 956.109 1220.46C956.856 1219.94 957.389 1219.25 957.709 1218.38H952.717V1214.34H957.709C957.346 1213.47 956.792 1212.79 956.045 1212.3C955.298 1211.81 954.413 1211.56 953.389 1211.56C952.322 1211.56 951.416 1211.85 950.669 1212.42C949.922 1213 949.432 1213.77 949.197 1214.73H941.805C942.146 1213.19 942.818 1211.84 943.821 1210.66C944.824 1209.49 946.136 1208.58 947.757 1207.94C949.4 1207.28 951.288 1206.95 953.421 1206.95ZM981.792 1215.37L990.912 1225H982.336L974.176 1216.9V1225H966.816V1207.56H974.176V1213.93L981.344 1207.56H990.016L981.792 1215.37ZM1001.01 1206.82C1003.31 1206.82 1005.39 1207.23 1007.25 1208.04C1009.1 1208.85 1010.55 1209.98 1011.6 1211.43C1012.64 1212.86 1013.17 1214.47 1013.17 1216.26C1013.17 1218.03 1012.63 1219.65 1011.57 1221.1C1010.52 1222.53 1009.07 1223.65 1007.22 1224.46C1005.38 1225.27 1003.31 1225.67 1001.01 1225.67C998.789 1225.67 996.709 1225.27 994.768 1224.46C992.826 1223.62 991.269 1222.49 990.096 1221.06C988.944 1219.61 988.368 1218.01 988.368 1216.26C988.368 1214.49 988.944 1212.89 990.096 1211.46C991.269 1210.01 992.816 1208.88 994.736 1208.07C996.677 1207.24 998.768 1206.82 1001.01 1206.82ZM1001.01 1221.1C1001.86 1221.1 1002.65 1220.91 1003.38 1220.55C1004.12 1220.19 1004.72 1219.65 1005.17 1218.92C1005.62 1218.17 1005.84 1217.29 1005.84 1216.26C1005.84 1215.24 1005.62 1214.37 1005.17 1213.64C1004.72 1212.89 1004.12 1212.34 1003.38 1211.98C1002.65 1211.61 1001.86 1211.43 1001.01 1211.43C1000.18 1211.43 999.354 1211.62 998.544 1212.01C997.754 1212.37 997.104 1212.91 996.592 1213.64C996.08 1214.37 995.824 1215.24 995.824 1216.26C995.824 1217.29 996.08 1218.16 996.592 1218.89C997.104 1219.61 997.754 1220.17 998.544 1220.55C999.354 1220.91 1000.18 1221.1 1001.01 1221.1ZM1013.87 1216.39C1013.87 1214.6 1014.4 1212.99 1015.47 1211.56C1016.53 1210.11 1018 1208.98 1019.85 1208.17C1021.71 1207.36 1023.76 1206.95 1026 1206.95C1028.13 1206.95 1030.01 1207.28 1031.63 1207.94C1033.27 1208.58 1034.59 1209.49 1035.6 1210.66C1036.6 1211.84 1037.26 1213.19 1037.58 1214.73H1030.22C1029.98 1213.77 1029.49 1213 1028.75 1212.42C1028 1211.85 1027.09 1211.56 1026.03 1211.56C1024.64 1211.56 1023.51 1212.01 1022.64 1212.9C1021.76 1213.78 1021.32 1214.94 1021.32 1216.39C1021.32 1217.8 1021.75 1218.96 1022.6 1219.88C1023.46 1220.78 1024.58 1221.22 1025.96 1221.22C1027.05 1221.22 1027.97 1220.94 1028.72 1220.36C1029.46 1219.78 1029.95 1219.03 1030.19 1218.09H1037.55C1037.31 1219.54 1036.67 1220.85 1035.63 1222.02C1034.58 1223.2 1033.22 1224.13 1031.53 1224.81C1029.87 1225.49 1028.02 1225.83 1026 1225.83C1023.78 1225.83 1021.74 1225.43 1019.88 1224.62C1018.03 1223.78 1016.56 1222.65 1015.47 1221.22C1014.4 1219.77 1013.87 1218.16 1013.87 1216.39ZM1045.92 1217.61L1055.23 1207.56H1062.59V1225H1055.23V1214.92L1045.92 1225H1038.79V1207.56H1045.92V1217.61ZM1063.81 1216.39C1063.81 1214.6 1064.34 1212.99 1065.41 1211.56C1066.47 1210.11 1067.93 1208.98 1069.79 1208.17C1071.65 1207.36 1073.69 1206.95 1075.93 1206.95C1078.07 1206.95 1079.94 1207.28 1081.57 1207.94C1083.21 1208.58 1084.53 1209.49 1085.53 1210.66C1086.54 1211.84 1087.2 1213.19 1087.52 1214.73H1080.16C1079.92 1213.77 1079.43 1213 1078.69 1212.42C1077.94 1211.85 1077.03 1211.56 1075.97 1211.56C1074.58 1211.56 1073.45 1212.01 1072.57 1212.9C1071.7 1213.78 1071.26 1214.94 1071.26 1216.39C1071.26 1217.8 1071.69 1218.96 1072.54 1219.88C1073.39 1220.78 1074.51 1221.22 1075.9 1221.22C1076.99 1221.22 1077.91 1220.94 1078.65 1220.36C1079.4 1219.78 1079.89 1219.03 1080.13 1218.09H1087.49C1087.25 1219.54 1086.61 1220.85 1085.57 1222.02C1084.52 1223.2 1083.15 1224.13 1081.47 1224.81C1079.81 1225.49 1077.96 1225.83 1075.93 1225.83C1073.71 1225.83 1071.68 1225.43 1069.82 1224.62C1067.97 1223.78 1066.49 1222.65 1065.41 1221.22C1064.34 1219.77 1063.81 1218.16 1063.81 1216.39ZM1111.61 1207.56V1213H1103.64V1225H1096.28V1213H1088.22V1207.56H1111.61ZM1136.91 1217H1119.86C1120 1218.34 1120.51 1219.45 1121.36 1220.33C1122.23 1221.18 1123.42 1221.61 1124.91 1221.61C1126.13 1221.61 1127.2 1221.32 1128.14 1220.74C1129.1 1220.15 1129.58 1219.24 1129.58 1218.02H1136.91C1136.91 1220.5 1135.84 1222.39 1133.71 1223.69C1131.6 1224.99 1128.66 1225.64 1124.88 1225.64C1122.55 1225.64 1120.44 1225.25 1118.54 1224.46C1116.64 1223.67 1115.14 1222.56 1114.03 1221.13C1112.92 1219.68 1112.37 1218.02 1112.37 1216.17C1112.37 1214.29 1112.91 1212.64 1114 1211.21C1115.11 1209.76 1116.61 1208.65 1118.51 1207.88C1120.43 1207.09 1122.55 1206.7 1124.88 1206.7C1127.27 1206.7 1129.36 1207.08 1131.15 1207.85C1132.96 1208.62 1134.37 1209.7 1135.38 1211.11C1136.38 1212.5 1136.89 1214.13 1136.91 1216.01V1216.17H1136.98H1136.91V1217ZM1124.88 1210.6C1123.47 1210.6 1122.39 1210.9 1121.65 1211.5C1120.9 1212.09 1120.39 1212.93 1120.11 1213.99H1129.39C1129.16 1212.93 1128.69 1212.09 1127.98 1211.5C1127.28 1210.9 1126.24 1210.6 1124.88 1210.6ZM1171.06 1207.56V1225H1163.7V1216.1L1158.13 1225H1151.41L1145.52 1216.1V1225H1138.16V1207.56H1146.58L1154.77 1219.91L1162.96 1207.56H1171.06ZM1187.19 1212.1C1190.34 1212.1 1192.66 1212.65 1194.13 1213.74C1195.62 1214.82 1196.37 1216.43 1196.37 1218.57V1218.66C1196.37 1220.69 1195.77 1222.26 1194.58 1223.37C1193.4 1224.46 1191.39 1225 1188.53 1225C1187.93 1225 1187.5 1224.99 1187.22 1224.97V1225H1172.85L1172.75 1207.56H1180.11L1180.15 1212.1H1187.12H1187.19ZM1197.33 1225V1207.56H1204.69V1225H1197.33ZM1186.32 1220.81C1187.13 1220.81 1187.77 1220.77 1188.24 1220.68C1188.71 1220.59 1189.11 1220.38 1189.43 1220.04C1189.75 1219.7 1189.91 1219.17 1189.91 1218.44C1189.91 1217.69 1189.74 1217.16 1189.39 1216.84C1189.07 1216.52 1188.69 1216.34 1188.24 1216.3C1187.79 1216.23 1187.1 1216.2 1186.16 1216.2H1186.13H1180.15L1180.18 1220.78C1183.36 1220.78 1185.14 1220.79 1185.52 1220.81H1186.32ZM1206.35 1225V1219.08H1213.29V1225L1210.28 1228.62H1206.44L1209.45 1225H1206.35ZM1241.97 1207.56V1212.55H1232.78V1225H1224.94V1207.56H1241.97ZM1266.28 1219.85H1269.44V1228.07H1262.05V1225.03L1245.57 1225V1228.07H1238.18V1219.85H1241.16C1241.86 1218.78 1242.38 1217.73 1242.72 1216.68C1243.07 1215.63 1243.29 1214.44 1243.4 1213.1C1243.52 1211.75 1243.59 1209.91 1243.59 1207.56H1266.24L1266.28 1219.85ZM1250.79 1212.46C1250.75 1214.16 1250.61 1215.57 1250.37 1216.68C1250.14 1217.79 1249.74 1218.85 1249.19 1219.85H1258.92V1212.49L1250.79 1212.46ZM1294.38 1217H1277.32C1277.47 1218.34 1277.98 1219.45 1278.83 1220.33C1279.7 1221.18 1280.89 1221.61 1282.38 1221.61C1283.6 1221.61 1284.67 1221.32 1285.61 1220.74C1286.57 1220.15 1287.05 1219.24 1287.05 1218.02H1294.38C1294.38 1220.5 1293.31 1222.39 1291.18 1223.69C1289.07 1224.99 1286.12 1225.64 1282.35 1225.64C1280.02 1225.64 1277.91 1225.25 1276.01 1224.46C1274.11 1223.67 1272.61 1222.56 1271.5 1221.13C1270.39 1219.68 1269.84 1218.02 1269.84 1216.17C1269.84 1214.29 1270.38 1212.64 1271.47 1211.21C1272.58 1209.76 1274.08 1208.65 1275.98 1207.88C1277.9 1207.09 1280.02 1206.7 1282.35 1206.7C1284.74 1206.7 1286.83 1207.08 1288.62 1207.85C1290.43 1208.62 1291.84 1209.7 1292.84 1211.11C1293.85 1212.5 1294.36 1214.13 1294.38 1216.01V1216.17H1294.44H1294.38V1217ZM1282.35 1210.6C1280.94 1210.6 1279.86 1210.9 1279.12 1211.5C1278.37 1212.09 1277.86 1212.93 1277.58 1213.99H1286.86C1286.63 1212.93 1286.16 1212.09 1285.45 1211.5C1284.75 1210.9 1283.71 1210.6 1282.35 1210.6ZM1328.96 1207.56V1213H1320.99V1225H1313.63V1213H1305.56V1207.56H1328.96ZM1354.26 1217H1337.2C1337.35 1218.34 1337.85 1219.45 1338.7 1220.33C1339.58 1221.18 1340.76 1221.61 1342.26 1221.61C1343.47 1221.61 1344.55 1221.32 1345.49 1220.74C1346.45 1220.15 1346.93 1219.24 1346.93 1218.02H1354.26C1354.26 1220.5 1353.19 1222.39 1351.06 1223.69C1348.94 1224.99 1346 1225.64 1342.22 1225.64C1339.9 1225.64 1337.79 1225.25 1335.89 1224.46C1333.99 1223.67 1332.48 1222.56 1331.38 1221.13C1330.27 1219.68 1329.71 1218.02 1329.71 1216.17C1329.71 1214.29 1330.26 1212.64 1331.34 1211.21C1332.45 1209.76 1333.96 1208.65 1335.86 1207.88C1337.78 1207.09 1339.9 1206.7 1342.22 1206.7C1344.61 1206.7 1346.7 1207.08 1348.5 1207.85C1350.31 1208.62 1351.72 1209.7 1352.72 1211.11C1353.72 1212.5 1354.23 1214.13 1354.26 1216.01V1216.17H1354.32H1354.26V1217ZM1342.22 1210.6C1340.82 1210.6 1339.74 1210.9 1338.99 1211.5C1338.24 1212.09 1337.73 1212.93 1337.46 1213.99H1346.74C1346.5 1212.93 1346.03 1212.09 1345.33 1211.5C1344.62 1210.9 1343.59 1210.6 1342.22 1210.6ZM1370.13 1207.56H1378.48L1370.61 1216.36L1378.48 1225H1370.13L1365.17 1219.59L1360.17 1225H1351.82L1359.73 1216.36L1351.82 1207.56H1360.17L1365.17 1213L1370.13 1207.56ZM1395.1 1213.86V1207.56H1402.43V1225H1395.1V1218.5H1386.17V1225H1379.07V1207.56H1386.17V1213.86H1395.1ZM1416.29 1206.82C1418.59 1206.82 1420.67 1207.23 1422.53 1208.04C1424.38 1208.85 1425.84 1209.98 1426.88 1211.43C1427.93 1212.86 1428.45 1214.47 1428.45 1216.26C1428.45 1218.03 1427.92 1219.65 1426.85 1221.1C1425.8 1222.53 1424.35 1223.65 1422.5 1224.46C1420.66 1225.27 1418.59 1225.67 1416.29 1225.67C1414.07 1225.67 1411.99 1225.27 1410.05 1224.46C1408.11 1223.62 1406.55 1222.49 1405.38 1221.06C1404.22 1219.61 1403.65 1218.01 1403.65 1216.26C1403.65 1214.49 1404.22 1212.89 1405.38 1211.46C1406.55 1210.01 1408.1 1208.88 1410.02 1208.07C1411.96 1207.24 1414.05 1206.82 1416.29 1206.82ZM1416.29 1221.1C1417.14 1221.1 1417.93 1220.91 1418.66 1220.55C1419.4 1220.19 1420 1219.65 1420.45 1218.92C1420.9 1218.17 1421.12 1217.29 1421.12 1216.26C1421.12 1215.24 1420.9 1214.37 1420.45 1213.64C1420 1212.89 1419.4 1212.34 1418.66 1211.98C1417.93 1211.61 1417.14 1211.43 1416.29 1211.43C1415.46 1211.43 1414.64 1211.62 1413.82 1212.01C1413.04 1212.37 1412.38 1212.91 1411.87 1213.64C1411.36 1214.37 1411.1 1215.24 1411.1 1216.26C1411.1 1217.29 1411.36 1218.16 1411.87 1218.89C1412.38 1219.61 1413.04 1220.17 1413.82 1220.55C1414.64 1220.91 1415.46 1221.1 1416.29 1221.1ZM1454.4 1207.62V1225H1447.04V1212.58H1440.51C1440.3 1215.19 1440.07 1217.1 1439.84 1218.31C1439.6 1219.51 1439.24 1220.51 1438.75 1221.32C1437.9 1222.79 1436.74 1223.79 1435.29 1224.33C1433.84 1224.84 1432.39 1225.1 1430.94 1225.1C1430.43 1225.1 1429.99 1225.07 1429.63 1225.03V1219.59C1430.44 1219.59 1431.04 1219.51 1431.42 1219.34C1431.83 1219.14 1432.1 1218.91 1432.25 1218.63C1432.42 1218.33 1432.62 1217.85 1432.83 1217.19C1433.15 1216.06 1433.34 1214.92 1433.4 1213.77C1433.49 1212.62 1433.53 1210.92 1433.53 1208.68V1207.62H1454.4ZM1468.23 1206.82C1470.53 1206.82 1472.61 1207.23 1474.47 1208.04C1476.32 1208.85 1477.77 1209.98 1478.82 1211.43C1479.86 1212.86 1480.39 1214.47 1480.39 1216.26C1480.39 1218.03 1479.85 1219.65 1478.79 1221.1C1477.74 1222.53 1476.29 1223.65 1474.43 1224.46C1472.6 1225.27 1470.53 1225.67 1468.23 1225.67C1466.01 1225.67 1463.93 1225.27 1461.99 1224.46C1460.05 1223.62 1458.49 1222.49 1457.31 1221.06C1456.16 1219.61 1455.59 1218.01 1455.59 1216.26C1455.59 1214.49 1456.16 1212.89 1457.31 1211.46C1458.49 1210.01 1460.03 1208.88 1461.95 1208.07C1463.9 1207.24 1465.99 1206.82 1468.23 1206.82ZM1468.23 1221.1C1469.08 1221.1 1469.87 1220.91 1470.59 1220.55C1471.34 1220.19 1471.94 1219.65 1472.39 1218.92C1472.83 1218.17 1473.06 1217.29 1473.06 1216.26C1473.06 1215.24 1472.83 1214.37 1472.39 1213.64C1471.94 1212.89 1471.34 1212.34 1470.59 1211.98C1469.87 1211.61 1469.08 1211.43 1468.23 1211.43C1467.39 1211.43 1466.57 1211.62 1465.76 1212.01C1464.97 1212.37 1464.32 1212.91 1463.81 1213.64C1463.3 1214.37 1463.04 1215.24 1463.04 1216.26C1463.04 1217.29 1463.3 1218.16 1463.81 1218.89C1464.32 1219.61 1464.97 1220.17 1465.76 1220.55C1466.57 1220.91 1467.39 1221.1 1468.23 1221.1ZM1498.59 1207.56V1212.55H1489.41V1225H1481.57V1207.56H1498.59ZM1507.05 1217.61L1516.36 1207.56H1523.72V1225H1516.36V1214.92L1507.05 1225H1499.91V1207.56H1507.05V1217.61ZM1532.55 1217.61L1541.86 1207.56H1549.22V1225H1541.86V1214.92L1532.55 1225H1525.41V1207.56H1532.55V1217.61ZM1560.46 1216.39C1560.46 1214.6 1560.99 1212.99 1562.06 1211.56C1563.13 1210.11 1564.59 1208.98 1566.45 1208.17C1568.3 1207.36 1570.35 1206.95 1572.59 1206.95C1574.72 1206.95 1576.6 1207.28 1578.22 1207.94C1579.86 1208.58 1581.19 1209.49 1582.19 1210.66C1583.19 1211.84 1583.85 1213.19 1584.17 1214.73H1576.81C1576.58 1213.77 1576.09 1213 1575.34 1212.42C1574.59 1211.85 1573.69 1211.56 1572.62 1211.56C1571.23 1211.56 1570.1 1212.01 1569.23 1212.9C1568.35 1213.78 1567.92 1214.94 1567.92 1216.39C1567.92 1217.8 1568.34 1218.96 1569.2 1219.88C1570.05 1220.78 1571.17 1221.22 1572.56 1221.22C1573.65 1221.22 1574.56 1220.94 1575.31 1220.36C1576.06 1219.78 1576.55 1219.03 1576.78 1218.09H1584.14C1583.91 1219.54 1583.27 1220.85 1582.22 1222.02C1581.18 1223.2 1579.81 1224.13 1578.13 1224.81C1576.46 1225.49 1574.62 1225.83 1572.59 1225.83C1570.37 1225.83 1568.33 1225.43 1566.48 1224.62C1564.62 1223.78 1563.15 1222.65 1562.06 1221.22C1560.99 1219.77 1560.46 1218.16 1560.46 1216.39ZM1610.15 1207.62V1225H1602.79V1212.58H1596.26C1596.05 1215.19 1595.82 1217.1 1595.59 1218.31C1595.35 1219.51 1594.99 1220.51 1594.5 1221.32C1593.65 1222.79 1592.49 1223.79 1591.04 1224.33C1589.59 1224.84 1588.14 1225.1 1586.69 1225.1C1586.18 1225.1 1585.74 1225.07 1585.38 1225.03V1219.59C1586.19 1219.59 1586.79 1219.51 1587.17 1219.34C1587.58 1219.14 1587.85 1218.91 1588 1218.63C1588.17 1218.33 1588.37 1217.85 1588.58 1217.19C1588.9 1216.06 1589.09 1214.92 1589.15 1213.77C1589.24 1212.62 1589.28 1210.92 1589.28 1208.68V1207.62H1610.15ZM1638.76 1207.56L1628.01 1228.94C1627.3 1230.34 1625.94 1231.25 1623.91 1231.66C1621.91 1232.06 1619.65 1232.26 1617.13 1232.26V1226.41C1618.34 1226.41 1619.19 1226.33 1619.66 1226.18C1620.13 1226.03 1620.36 1225.82 1620.36 1225.54C1620.36 1225.46 1620.32 1225.31 1620.23 1225.1L1611.24 1207.56H1619.11L1625.06 1220.46L1630.89 1207.56H1638.76ZM1668.33 1215.37L1676.84 1225H1668.58L1661.45 1217.06V1225H1654.09V1217.13L1646.98 1225H1638.73L1647.24 1215.37L1639.62 1207.56H1647.98L1654.09 1213.74V1207.56H1661.45V1213.77L1667.59 1207.56H1675.94L1668.33 1215.37ZM1687.78 1206.79C1690.83 1206.79 1693.57 1207.3 1696 1208.33C1698.43 1209.35 1699.65 1211.15 1699.65 1213.74V1225H1692.67L1692.13 1222.73V1222.57C1691.59 1223.53 1690.46 1224.23 1688.74 1224.68C1687.03 1225.13 1685.16 1225.35 1683.14 1225.35C1681.51 1225.35 1679.89 1225 1678.27 1224.3C1676.65 1223.57 1675.84 1222.07 1675.84 1219.78C1675.84 1216.18 1678.2 1214.38 1682.91 1214.38C1685.94 1214.38 1688.05 1214.35 1689.25 1214.31C1690.44 1214.25 1691.23 1214.14 1691.62 1213.99C1692 1213.82 1692.2 1213.52 1692.22 1213.1V1212.68C1692.2 1211.98 1691.73 1211.46 1690.82 1211.14C1689.92 1210.8 1688.9 1210.63 1687.74 1210.63C1686.55 1210.65 1685.53 1210.88 1684.67 1211.3C1683.84 1211.73 1683.42 1212.38 1683.42 1213.26H1676.03C1676.03 1211.63 1676.67 1210.34 1677.95 1209.38C1679.23 1208.4 1680.76 1207.73 1682.53 1207.37C1684.32 1206.98 1686.07 1206.79 1687.78 1206.79ZM1687.3 1220.68C1688.87 1220.68 1690.07 1220.33 1690.88 1219.62C1691.69 1218.92 1692.13 1218.02 1692.19 1216.94V1216.49C1691.38 1216.83 1690.09 1217 1688.32 1217C1686.49 1217 1685.19 1217.13 1684.45 1217.38C1683.72 1217.64 1683.35 1218.11 1683.33 1218.79C1683.39 1219.43 1683.72 1219.91 1684.32 1220.23C1684.94 1220.53 1685.93 1220.68 1687.3 1220.68ZM1724.61 1207.56V1213H1716.64V1225H1709.28V1213H1701.22V1207.56H1724.61ZM725.464 1259.37L734.584 1269H726.008L717.848 1260.9V1269H710.488V1251.56H717.848V1257.93L725.016 1251.56H733.688L725.464 1259.37ZM744.68 1250.82C746.984 1250.82 749.064 1251.23 750.92 1252.04C752.776 1252.85 754.226 1253.98 755.272 1255.43C756.317 1256.86 756.84 1258.47 756.84 1260.26C756.84 1262.03 756.306 1263.65 755.24 1265.1C754.194 1266.53 752.744 1267.65 750.888 1268.46C749.053 1269.27 746.984 1269.67 744.68 1269.67C742.461 1269.67 740.381 1269.27 738.44 1268.46C736.498 1267.62 734.941 1266.49 733.768 1265.06C732.616 1263.61 732.04 1262.01 732.04 1260.26C732.04 1258.49 732.616 1256.89 733.768 1255.46C734.941 1254.01 736.488 1252.88 738.408 1252.07C740.349 1251.24 742.44 1250.82 744.68 1250.82ZM744.68 1265.1C745.533 1265.1 746.322 1264.91 747.048 1264.55C747.794 1264.19 748.392 1263.65 748.84 1262.92C749.288 1262.17 749.512 1261.29 749.512 1260.26C749.512 1259.24 749.288 1258.37 748.84 1257.64C748.392 1256.89 747.794 1256.34 747.048 1255.98C746.322 1255.61 745.533 1255.43 744.68 1255.43C743.848 1255.43 743.026 1255.62 742.216 1256.01C741.426 1256.37 740.776 1256.91 740.264 1257.64C739.752 1258.37 739.496 1259.24 739.496 1260.26C739.496 1261.29 739.752 1262.16 740.264 1262.89C740.776 1263.61 741.426 1264.17 742.216 1264.55C743.026 1264.91 743.848 1265.1 744.68 1265.1ZM790.916 1251.56V1269H783.556V1260.1L777.988 1269H771.268L765.38 1260.1V1269H758.02V1251.56H766.436L774.628 1263.91L782.82 1251.56H790.916ZM827.269 1260.36C827.269 1262.07 826.672 1263.61 825.477 1265C824.283 1266.37 822.629 1267.45 820.517 1268.26C818.427 1269.05 816.069 1269.45 813.445 1269.45V1269.48H813.285V1274.28H805.925V1269.48H805.733V1269.45C803.323 1269.43 801.072 1269.02 798.981 1268.23C796.891 1267.42 795.227 1266.33 793.989 1264.97C792.752 1263.58 792.133 1262.05 792.133 1260.36C792.133 1258.72 792.72 1257.22 793.893 1255.88C795.088 1254.51 796.677 1253.43 798.661 1252.62C800.667 1251.81 802.832 1251.36 805.157 1251.27V1251.24H805.925V1245.32H813.285V1251.24H813.445C816.069 1251.26 818.427 1251.67 820.517 1252.46C822.629 1253.25 824.283 1254.33 825.477 1255.72C826.672 1257.09 827.269 1258.63 827.269 1260.36ZM799.397 1260.36C799.397 1261.28 799.728 1262.03 800.389 1262.63C801.072 1263.23 801.904 1263.67 802.885 1263.94C803.888 1264.22 804.891 1264.36 805.893 1264.36H805.925V1256.36H805.893C804.869 1256.36 803.867 1256.5 802.885 1256.78C801.904 1257.03 801.072 1257.46 800.389 1258.06C799.728 1258.65 799.397 1259.42 799.397 1260.36ZM813.413 1264.36C815.12 1264.36 816.624 1264.03 817.925 1263.37C819.248 1262.71 819.909 1261.7 819.909 1260.36C819.909 1258.99 819.259 1257.99 817.957 1257.35C816.656 1256.69 815.141 1256.36 813.413 1256.36H813.285V1264.36H813.413ZM840.648 1250.82C842.952 1250.82 845.032 1251.23 846.888 1252.04C848.744 1252.85 850.195 1253.98 851.24 1255.43C852.286 1256.86 852.808 1258.47 852.808 1260.26C852.808 1262.03 852.275 1263.65 851.208 1265.1C850.163 1266.53 848.712 1267.65 846.856 1268.46C845.022 1269.27 842.952 1269.67 840.648 1269.67C838.43 1269.67 836.35 1269.27 834.408 1268.46C832.467 1267.62 830.91 1266.49 829.736 1265.06C828.584 1263.61 828.008 1262.01 828.008 1260.26C828.008 1258.49 828.584 1256.89 829.736 1255.46C830.91 1254.01 832.456 1252.88 834.376 1252.07C836.318 1251.24 838.408 1250.82 840.648 1250.82ZM840.648 1265.1C841.502 1265.1 842.291 1264.91 843.016 1264.55C843.763 1264.19 844.36 1263.65 844.808 1262.92C845.256 1262.17 845.48 1261.29 845.48 1260.26C845.48 1259.24 845.256 1258.37 844.808 1257.64C844.36 1256.89 843.763 1256.34 843.016 1255.98C842.291 1255.61 841.502 1255.43 840.648 1255.43C839.816 1255.43 838.995 1255.62 838.184 1256.01C837.395 1256.37 836.744 1256.91 836.232 1257.64C835.72 1258.37 835.464 1259.24 835.464 1260.26C835.464 1261.29 835.72 1262.16 836.232 1262.89C836.744 1263.61 837.395 1264.17 838.184 1264.55C838.995 1264.91 839.816 1265.1 840.648 1265.1ZM878.084 1260.68C878.042 1262.19 877.658 1263.63 876.932 1265C876.228 1266.37 875.236 1267.47 873.956 1268.33C872.676 1269.16 871.226 1269.58 869.604 1269.58C865.914 1269.58 863.162 1268.74 861.348 1267.08V1275.08H853.988V1251.56H860.74L861.156 1253.8C862.948 1251.97 865.764 1251.09 869.604 1251.18C871.247 1251.18 872.698 1251.58 873.956 1252.39C875.236 1253.2 876.239 1254.31 876.964 1255.72C877.69 1257.13 878.063 1258.71 878.084 1260.46V1260.55V1260.68ZM865.924 1265.22C867.418 1265.22 868.57 1264.77 869.38 1263.85C870.212 1262.91 870.65 1261.8 870.692 1260.52C870.65 1259.05 870.223 1257.84 869.412 1256.9C868.623 1255.94 867.46 1255.46 865.924 1255.46C865.05 1255.46 864.26 1255.69 863.556 1256.14C862.874 1256.56 862.33 1257.15 861.924 1257.9C861.54 1258.62 861.348 1259.4 861.348 1260.23V1260.3C861.348 1261.79 861.764 1262.98 862.596 1263.88C863.45 1264.78 864.559 1265.22 865.924 1265.22ZM902.441 1251.56V1257H894.472V1269H887.113V1257H879.049V1251.56H902.441ZM930.932 1251.56L920.18 1272.94C919.476 1274.34 918.111 1275.25 916.084 1275.66C914.079 1276.06 911.818 1276.26 909.3 1276.26V1270.41C910.516 1270.41 911.359 1270.33 911.828 1270.18C912.298 1270.03 912.532 1269.82 912.532 1269.54C912.532 1269.46 912.49 1269.31 912.404 1269.1L903.412 1251.56H911.284L917.236 1264.46L923.06 1251.56H930.932ZM949.187 1261.61L958.499 1251.56H965.859V1269H958.499V1258.92L949.187 1269H942.051V1251.56H949.187V1261.61ZM1001.68 1260.68C1001.64 1262.19 1001.25 1263.63 1000.53 1265C999.822 1266.37 998.83 1267.47 997.55 1268.33C996.27 1269.16 994.819 1269.58 993.198 1269.58C989.507 1269.58 986.755 1268.74 984.942 1267.08V1275.08H977.582V1251.56H984.334L984.75 1253.8C986.542 1251.97 989.358 1251.09 993.198 1251.18C994.841 1251.18 996.291 1251.58 997.55 1252.39C998.83 1253.2 999.833 1254.31 1000.56 1255.72C1001.28 1257.13 1001.66 1258.71 1001.68 1260.46V1260.55V1260.68ZM989.518 1265.22C991.011 1265.22 992.163 1264.77 992.974 1263.85C993.806 1262.91 994.243 1261.8 994.286 1260.52C994.243 1259.05 993.817 1257.84 993.006 1256.9C992.217 1255.94 991.054 1255.46 989.518 1255.46C988.643 1255.46 987.854 1255.69 987.15 1256.14C986.467 1256.56 985.923 1257.15 985.518 1257.9C985.134 1258.62 984.942 1259.4 984.942 1260.23V1260.3C984.942 1261.79 985.358 1262.98 986.19 1263.88C987.043 1264.78 988.153 1265.22 989.518 1265.22ZM1014.67 1250.79C1017.72 1250.79 1020.46 1251.3 1022.89 1252.33C1025.32 1253.35 1026.54 1255.15 1026.54 1257.74V1269H1019.56L1019.02 1266.73V1266.57C1018.49 1267.53 1017.35 1268.23 1015.63 1268.68C1013.92 1269.13 1012.05 1269.35 1010.03 1269.35C1008.41 1269.35 1006.78 1269 1005.16 1268.3C1003.54 1267.57 1002.73 1266.07 1002.73 1263.78C1002.73 1260.18 1005.09 1258.38 1009.8 1258.38C1012.83 1258.38 1014.94 1258.35 1016.14 1258.31C1017.33 1258.25 1018.12 1258.14 1018.51 1257.99C1018.89 1257.82 1019.09 1257.52 1019.11 1257.1V1256.68C1019.09 1255.98 1018.62 1255.46 1017.71 1255.14C1016.81 1254.8 1015.79 1254.63 1014.63 1254.63C1013.44 1254.65 1012.42 1254.88 1011.56 1255.3C1010.73 1255.73 1010.31 1256.38 1010.31 1257.26H1002.92C1002.92 1255.63 1003.56 1254.34 1004.84 1253.38C1006.12 1252.4 1007.65 1251.73 1009.42 1251.37C1011.21 1250.98 1012.96 1250.79 1014.67 1250.79ZM1014.19 1264.68C1015.77 1264.68 1016.96 1264.33 1017.77 1263.62C1018.58 1262.92 1019.02 1262.02 1019.08 1260.94V1260.49C1018.27 1260.83 1016.98 1261 1015.21 1261C1013.38 1261 1012.09 1261.13 1011.34 1261.38C1010.61 1261.64 1010.24 1262.11 1010.22 1262.79C1010.28 1263.43 1010.61 1263.91 1011.21 1264.23C1011.83 1264.53 1012.82 1264.68 1014.19 1264.68ZM1051.28 1263.05C1051.26 1265.22 1050.2 1266.85 1048.11 1267.91C1046.02 1268.96 1043.23 1269.48 1039.73 1269.48C1037.19 1269.48 1035.01 1269.12 1033.2 1268.39C1031.39 1267.67 1030.02 1266.72 1029.1 1265.54C1028.19 1264.37 1027.73 1263.14 1027.73 1261.86H1034.99C1034.99 1262.85 1035.45 1263.58 1036.37 1264.07C1037.28 1264.56 1038.4 1264.83 1039.73 1264.87C1040.9 1264.94 1041.89 1264.82 1042.7 1264.52C1043.54 1264.22 1043.95 1263.71 1043.95 1262.98C1043.93 1262.51 1043.65 1262.18 1043.12 1261.99C1042.59 1261.8 1041.7 1261.7 1040.46 1261.7H1037.46V1258.18H1040.46C1041.79 1258.18 1042.68 1258.08 1043.15 1257.86C1043.62 1257.65 1043.86 1257.35 1043.86 1256.97C1043.86 1256.41 1043.45 1256.01 1042.64 1255.75C1041.85 1255.47 1040.88 1255.34 1039.73 1255.34C1038.4 1255.34 1037.28 1255.49 1036.37 1255.78C1035.45 1256.08 1034.99 1256.56 1034.99 1257.22H1027.73C1027.73 1255.67 1028.38 1254.43 1029.68 1253.51C1031 1252.57 1032.57 1251.92 1034.38 1251.56C1036.22 1251.18 1038 1250.98 1039.73 1250.98C1041.41 1250.98 1043.09 1251.15 1044.75 1251.5C1046.42 1251.84 1047.83 1252.45 1049.01 1253.32C1050.18 1254.17 1050.77 1255.35 1050.77 1256.84C1050.77 1258.21 1049.92 1259.18 1048.24 1259.75C1050.27 1260.35 1051.28 1261.44 1051.28 1263.02V1263.05ZM1059.62 1262.79C1059.6 1262.92 1059.59 1263.11 1059.59 1263.37L1059.62 1262.79ZM1072.97 1259.88C1074.36 1260.16 1075.39 1260.63 1076.07 1261.29C1076.78 1261.93 1077.13 1262.86 1077.13 1264.07V1264.14C1077.13 1265.84 1076.36 1267.08 1074.83 1267.85C1073.31 1268.59 1071.02 1268.99 1067.95 1269.03H1067.88H1067.08H1052.46V1251.56H1068.87V1251.59H1068.94C1071.09 1251.59 1072.75 1251.95 1073.9 1252.68C1075.07 1253.41 1075.66 1254.46 1075.66 1255.85V1255.94C1075.66 1256.97 1075.43 1257.8 1074.99 1258.44C1074.56 1259.08 1073.89 1259.56 1072.97 1259.88ZM1065.32 1258.47C1066.11 1258.47 1066.71 1258.45 1067.11 1258.41C1067.52 1258.37 1067.86 1258.23 1068.14 1257.99C1068.41 1257.76 1068.55 1257.37 1068.55 1256.84C1068.55 1256.35 1068.41 1256 1068.14 1255.78C1067.88 1255.55 1067.54 1255.41 1067.11 1255.37C1066.71 1255.3 1066.11 1255.27 1065.32 1255.27H1059.62V1258.44C1062.19 1258.44 1063.74 1258.45 1064.3 1258.47C1064.87 1258.47 1065.18 1258.47 1065.23 1258.47H1065.32ZM1066.06 1264.97C1067 1264.97 1067.71 1264.95 1068.2 1264.9C1068.71 1264.84 1069.13 1264.69 1069.45 1264.46C1069.77 1264.22 1069.93 1263.84 1069.93 1263.3C1069.93 1262.77 1069.77 1262.39 1069.45 1262.15C1069.13 1261.92 1068.71 1261.78 1068.2 1261.74C1067.71 1261.67 1067 1261.64 1066.06 1261.64H1066.03H1059.62V1264.97H1066.06ZM1085.44 1261.61L1094.75 1251.56H1102.11V1269H1094.75V1258.92L1085.44 1269H1078.3V1251.56H1085.44V1261.61ZM1127.1 1251.56V1257H1119.13V1269H1111.77V1257H1103.7V1251.56H1127.1ZM1135.78 1261.61L1145.09 1251.56H1152.45V1269H1145.09V1258.92L1135.78 1269H1128.64V1251.56H1135.78V1261.61ZM1175.58 1250.82C1177.89 1250.82 1179.96 1251.23 1181.79 1252.04C1183.65 1252.85 1185.1 1253.98 1186.14 1255.43C1187.19 1256.86 1187.71 1258.47 1187.71 1260.26C1187.71 1262.03 1187.19 1263.65 1186.14 1265.1C1185.1 1266.53 1183.65 1267.65 1181.79 1268.46C1179.96 1269.27 1177.89 1269.67 1175.58 1269.67C1173.66 1269.67 1171.83 1269.36 1170.08 1268.74C1168.35 1268.1 1166.88 1267.22 1165.66 1266.09C1164.47 1264.96 1163.67 1263.68 1163.26 1262.25H1161.5V1269H1154.14V1251.53H1161.5V1257.45H1163.52C1164.05 1256.15 1164.92 1254.99 1166.11 1253.99C1167.33 1252.99 1168.76 1252.21 1170.4 1251.66C1172.04 1251.1 1173.77 1250.82 1175.58 1250.82ZM1175.58 1265.1C1176.44 1265.1 1177.23 1264.9 1177.95 1264.52C1178.7 1264.14 1179.29 1263.58 1179.71 1262.86C1180.16 1262.13 1180.38 1261.27 1180.38 1260.26C1180.38 1258.77 1179.93 1257.6 1179.01 1256.74C1178.09 1255.87 1176.95 1255.43 1175.58 1255.43C1174.75 1255.43 1173.94 1255.62 1173.15 1256.01C1172.36 1256.39 1171.71 1256.96 1171.2 1257.7C1170.69 1258.43 1170.43 1259.28 1170.43 1260.26C1170.43 1261.25 1170.68 1262.11 1171.17 1262.86C1171.68 1263.58 1172.33 1264.14 1173.12 1264.52C1173.91 1264.9 1174.73 1265.1 1175.58 1265.1ZM1215.95 1251.56V1256.55H1206.77V1269H1198.93V1251.56H1215.95ZM1228.96 1250.82C1231.26 1250.82 1233.34 1251.23 1235.2 1252.04C1237.06 1252.85 1238.51 1253.98 1239.55 1255.43C1240.6 1256.86 1241.12 1258.47 1241.12 1260.26C1241.12 1262.03 1240.59 1263.65 1239.52 1265.1C1238.48 1266.53 1237.02 1267.65 1235.17 1268.46C1233.33 1269.27 1231.26 1269.67 1228.96 1269.67C1226.74 1269.67 1224.66 1269.27 1222.72 1268.46C1220.78 1267.62 1219.22 1266.49 1218.05 1265.06C1216.9 1263.61 1216.32 1262.01 1216.32 1260.26C1216.32 1258.49 1216.9 1256.89 1218.05 1255.46C1219.22 1254.01 1220.77 1252.88 1222.69 1252.07C1224.63 1251.24 1226.72 1250.82 1228.96 1250.82ZM1228.96 1265.1C1229.81 1265.1 1230.6 1264.91 1231.33 1264.55C1232.08 1264.19 1232.67 1263.65 1233.12 1262.92C1233.57 1262.17 1233.79 1261.29 1233.79 1260.26C1233.79 1259.24 1233.57 1258.37 1233.12 1257.64C1232.67 1256.89 1232.08 1256.34 1231.33 1255.98C1230.6 1255.61 1229.81 1255.43 1228.96 1255.43C1228.13 1255.43 1227.31 1255.62 1226.5 1256.01C1225.71 1256.37 1225.06 1256.91 1224.54 1257.64C1224.03 1258.37 1223.78 1259.24 1223.78 1260.26C1223.78 1261.29 1224.03 1262.16 1224.54 1262.89C1225.06 1263.61 1225.71 1264.17 1226.5 1264.55C1227.31 1264.91 1228.13 1265.1 1228.96 1265.1ZM1266.4 1260.68C1266.35 1262.19 1265.97 1263.63 1265.24 1265C1264.54 1266.37 1263.55 1267.47 1262.27 1268.33C1260.99 1269.16 1259.54 1269.58 1257.92 1269.58C1254.23 1269.58 1251.47 1268.74 1249.66 1267.08V1275.08H1242.3V1251.56H1249.05L1249.47 1253.8C1251.26 1251.97 1254.08 1251.09 1257.92 1251.18C1259.56 1251.18 1261.01 1251.58 1262.27 1252.39C1263.55 1253.2 1264.55 1254.31 1265.28 1255.72C1266 1257.13 1266.38 1258.71 1266.4 1260.46V1260.55V1260.68ZM1254.24 1265.22C1255.73 1265.22 1256.88 1264.77 1257.69 1263.85C1258.52 1262.91 1258.96 1261.8 1259 1260.52C1258.96 1259.05 1258.54 1257.84 1257.72 1256.9C1256.94 1255.94 1255.77 1255.46 1254.24 1255.46C1253.36 1255.46 1252.57 1255.69 1251.87 1256.14C1251.19 1256.56 1250.64 1257.15 1250.24 1257.9C1249.85 1258.62 1249.66 1259.4 1249.66 1260.23V1260.3C1249.66 1261.79 1250.08 1262.98 1250.91 1263.88C1251.76 1264.78 1252.87 1265.22 1254.24 1265.22ZM1279.93 1250.82C1282.23 1250.82 1284.31 1251.23 1286.17 1252.04C1288.03 1252.85 1289.48 1253.98 1290.52 1255.43C1291.57 1256.86 1292.09 1258.47 1292.09 1260.26C1292.09 1262.03 1291.56 1263.65 1290.49 1265.1C1289.44 1266.53 1287.99 1267.65 1286.14 1268.46C1284.3 1269.27 1282.23 1269.67 1279.93 1269.67C1277.71 1269.67 1275.63 1269.27 1273.69 1268.46C1271.75 1267.62 1270.19 1266.49 1269.02 1265.06C1267.87 1263.61 1267.29 1262.01 1267.29 1260.26C1267.29 1258.49 1267.87 1256.89 1269.02 1255.46C1270.19 1254.01 1271.74 1252.88 1273.66 1252.07C1275.6 1251.24 1277.69 1250.82 1279.93 1250.82ZM1279.93 1265.1C1280.78 1265.1 1281.57 1264.91 1282.3 1264.55C1283.04 1264.19 1283.64 1263.65 1284.09 1262.92C1284.54 1262.17 1284.76 1261.29 1284.76 1260.26C1284.76 1259.24 1284.54 1258.37 1284.09 1257.64C1283.64 1256.89 1283.04 1256.34 1282.3 1255.98C1281.57 1255.61 1280.78 1255.43 1279.93 1255.43C1279.1 1255.43 1278.28 1255.62 1277.47 1256.01C1276.68 1256.37 1276.03 1256.91 1275.51 1257.64C1275 1258.37 1274.75 1259.24 1274.75 1260.26C1274.75 1261.29 1275 1262.16 1275.51 1262.89C1276.03 1263.61 1276.68 1264.17 1277.47 1264.55C1278.28 1264.91 1279.1 1265.1 1279.93 1265.1ZM1320.57 1263.85H1323.74V1272.07H1316.35V1269.03L1299.87 1269V1272.07H1292.48V1263.85H1295.45C1296.16 1262.78 1296.68 1261.73 1297.02 1260.68C1297.36 1259.63 1297.59 1258.44 1297.69 1257.1C1297.82 1255.75 1297.89 1253.91 1297.89 1251.56H1320.54L1320.57 1263.85ZM1305.09 1256.46C1305.04 1258.16 1304.9 1259.57 1304.67 1260.68C1304.43 1261.79 1304.04 1262.85 1303.49 1263.85H1313.21V1256.49L1305.09 1256.46ZM1324.13 1260.39C1324.13 1258.6 1324.67 1256.99 1325.73 1255.56C1326.8 1254.11 1328.26 1252.98 1330.12 1252.17C1331.97 1251.36 1334.02 1250.95 1336.26 1250.95C1338.39 1250.95 1340.27 1251.28 1341.89 1251.94C1343.54 1252.58 1344.86 1253.49 1345.86 1254.66C1346.86 1255.84 1347.53 1257.19 1347.85 1258.73H1340.49C1340.25 1257.77 1339.76 1257 1339.01 1256.42C1338.27 1255.85 1337.36 1255.56 1336.29 1255.56C1334.91 1255.56 1333.78 1256.01 1332.9 1256.9C1332.03 1257.78 1331.59 1258.94 1331.59 1260.39C1331.59 1261.8 1332.02 1262.96 1332.87 1263.88C1333.72 1264.78 1334.84 1265.22 1336.23 1265.22C1337.32 1265.22 1338.23 1264.94 1338.98 1264.36C1339.73 1263.78 1340.22 1263.03 1340.45 1262.09H1347.81C1347.58 1263.54 1346.94 1264.85 1345.89 1266.02C1344.85 1267.2 1343.48 1268.13 1341.8 1268.81C1340.13 1269.49 1338.29 1269.83 1336.26 1269.83C1334.04 1269.83 1332.01 1269.43 1330.15 1268.62C1328.29 1267.78 1326.82 1266.65 1325.73 1265.22C1324.67 1263.77 1324.13 1262.16 1324.13 1260.39ZM1364.03 1259.37L1373.15 1269H1364.57L1356.41 1260.9V1269H1349.05V1251.56H1356.41V1257.93L1363.58 1251.56H1372.25L1364.03 1259.37ZM1383.24 1250.82C1385.55 1250.82 1387.63 1251.23 1389.48 1252.04C1391.34 1252.85 1392.79 1253.98 1393.83 1255.43C1394.88 1256.86 1395.4 1258.47 1395.4 1260.26C1395.4 1262.03 1394.87 1263.65 1393.8 1265.1C1392.76 1266.53 1391.31 1267.65 1389.45 1268.46C1387.62 1269.27 1385.55 1269.67 1383.24 1269.67C1381.02 1269.67 1378.94 1269.27 1377 1268.46C1375.06 1267.62 1373.5 1266.49 1372.33 1265.06C1371.18 1263.61 1370.6 1262.01 1370.6 1260.26C1370.6 1258.49 1371.18 1256.89 1372.33 1255.46C1373.5 1254.01 1375.05 1252.88 1376.97 1252.07C1378.91 1251.24 1381 1250.82 1383.24 1250.82ZM1383.24 1265.1C1384.1 1265.1 1384.88 1264.91 1385.61 1264.55C1386.36 1264.19 1386.95 1263.65 1387.4 1262.92C1387.85 1262.17 1388.07 1261.29 1388.07 1260.26C1388.07 1259.24 1387.85 1258.37 1387.4 1257.64C1386.95 1256.89 1386.36 1256.34 1385.61 1255.98C1384.88 1255.61 1384.1 1255.43 1383.24 1255.43C1382.41 1255.43 1381.59 1255.62 1380.78 1256.01C1379.99 1256.37 1379.34 1256.91 1378.83 1257.64C1378.31 1258.37 1378.06 1259.24 1378.06 1260.26C1378.06 1261.29 1378.31 1262.16 1378.83 1262.89C1379.34 1263.61 1379.99 1264.17 1380.78 1264.55C1381.59 1264.91 1382.41 1265.1 1383.24 1265.1ZM1408.61 1251.21C1406.42 1251.21 1404.64 1250.72 1403.27 1249.74C1401.9 1248.75 1401.22 1247.28 1401.22 1245.32H1405.41C1405.41 1246.15 1405.7 1246.83 1406.28 1247.37C1406.85 1247.88 1407.6 1248.14 1408.52 1248.14C1409.46 1248.14 1410.22 1247.88 1410.82 1247.37C1411.42 1246.83 1411.72 1246.15 1411.72 1245.32H1415.91C1415.91 1247.28 1415.23 1248.75 1413.86 1249.74C1412.5 1250.72 1410.75 1251.21 1408.61 1251.21ZM1403.72 1261.61L1413.03 1251.56H1420.39V1269H1413.03V1258.92L1403.72 1269H1396.58V1251.56H1403.72V1261.61ZM1431.63 1260.39C1431.63 1258.6 1432.17 1256.99 1433.23 1255.56C1434.3 1254.11 1435.76 1252.98 1437.62 1252.17C1439.47 1251.36 1441.52 1250.95 1443.76 1250.95C1445.89 1250.95 1447.77 1251.28 1449.39 1251.94C1451.04 1252.58 1452.36 1253.49 1453.36 1254.66C1454.36 1255.84 1455.03 1257.19 1455.35 1258.73H1447.99C1447.75 1257.77 1447.26 1257 1446.51 1256.42C1445.77 1255.85 1444.86 1255.56 1443.79 1255.56C1442.41 1255.56 1441.28 1256.01 1440.4 1256.9C1439.53 1257.78 1439.09 1258.94 1439.09 1260.39C1439.09 1261.8 1439.52 1262.96 1440.37 1263.88C1441.22 1264.78 1442.34 1265.22 1443.73 1265.22C1444.82 1265.22 1445.73 1264.94 1446.48 1264.36C1447.23 1263.78 1447.72 1263.03 1447.95 1262.09H1455.31C1455.08 1263.54 1454.44 1264.85 1453.39 1266.02C1452.35 1267.2 1450.98 1268.13 1449.3 1268.81C1447.63 1269.49 1445.79 1269.83 1443.76 1269.83C1441.54 1269.83 1439.51 1269.43 1437.65 1268.62C1435.79 1267.78 1434.32 1266.65 1433.23 1265.22C1432.17 1263.77 1431.63 1262.16 1431.63 1260.39ZM1480.65 1260.68C1480.6 1262.19 1480.22 1263.63 1479.49 1265C1478.79 1266.37 1477.8 1267.47 1476.52 1268.33C1475.24 1269.16 1473.79 1269.58 1472.17 1269.58C1468.48 1269.58 1465.72 1268.74 1463.91 1267.08V1275.08H1456.55V1251.56H1463.3L1463.72 1253.8C1465.51 1251.97 1468.33 1251.09 1472.17 1251.18C1473.81 1251.18 1475.26 1251.58 1476.52 1252.39C1477.8 1253.2 1478.8 1254.31 1479.53 1255.72C1480.25 1257.13 1480.63 1258.71 1480.65 1260.46V1260.55V1260.68ZM1468.49 1265.22C1469.98 1265.22 1471.13 1264.77 1471.94 1263.85C1472.77 1262.91 1473.21 1261.8 1473.25 1260.52C1473.21 1259.05 1472.79 1257.84 1471.97 1256.9C1471.19 1255.94 1470.02 1255.46 1468.49 1255.46C1467.61 1255.46 1466.82 1255.69 1466.12 1256.14C1465.44 1256.56 1464.89 1257.15 1464.49 1257.9C1464.1 1258.62 1463.91 1259.4 1463.91 1260.23V1260.3C1463.91 1261.79 1464.33 1262.98 1465.16 1263.88C1466.01 1264.78 1467.12 1265.22 1468.49 1265.22ZM1506.08 1261H1489.03C1489.18 1262.34 1489.68 1263.45 1490.53 1264.33C1491.41 1265.18 1492.59 1265.61 1494.08 1265.61C1495.3 1265.61 1496.38 1265.32 1497.32 1264.74C1498.28 1264.15 1498.76 1263.24 1498.76 1262.02H1506.08C1506.08 1264.5 1505.02 1266.39 1502.88 1267.69C1500.77 1268.99 1497.83 1269.64 1494.05 1269.64C1491.73 1269.64 1489.61 1269.25 1487.72 1268.46C1485.82 1267.67 1484.31 1266.56 1483.2 1265.13C1482.09 1263.68 1481.54 1262.02 1481.54 1260.17C1481.54 1258.29 1482.08 1256.64 1483.17 1255.21C1484.28 1253.76 1485.78 1252.65 1487.68 1251.88C1489.6 1251.09 1491.73 1250.7 1494.05 1250.7C1496.44 1250.7 1498.53 1251.08 1500.32 1251.85C1502.14 1252.62 1503.54 1253.7 1504.55 1255.11C1505.55 1256.5 1506.06 1258.13 1506.08 1260.01V1260.17H1506.15H1506.08V1261ZM1494.05 1254.6C1492.64 1254.6 1491.57 1254.9 1490.82 1255.5C1490.07 1256.09 1489.56 1256.93 1489.28 1257.99H1498.56C1498.33 1256.93 1497.86 1256.09 1497.16 1255.5C1496.45 1254.9 1495.42 1254.6 1494.05 1254.6ZM1534.64 1263.85H1537.8V1272.07H1530.41V1269.03L1513.93 1269V1272.07H1506.54V1263.85H1509.52C1510.22 1262.78 1510.74 1261.73 1511.08 1260.68C1511.42 1259.63 1511.65 1258.44 1511.76 1257.1C1511.88 1255.75 1511.95 1253.91 1511.95 1251.56H1534.6L1534.64 1263.85ZM1519.15 1256.46C1519.1 1258.16 1518.97 1259.57 1518.73 1260.68C1518.5 1261.79 1518.1 1262.85 1517.55 1263.85H1527.28V1256.49L1519.15 1256.46ZM1553.42 1256.1C1556.58 1256.1 1558.89 1256.65 1560.36 1257.74C1561.86 1258.82 1562.6 1260.43 1562.6 1262.57V1262.66C1562.6 1264.69 1562.01 1266.26 1560.81 1267.37C1559.64 1268.46 1557.62 1269 1554.76 1269C1554.17 1269 1553.73 1268.99 1553.45 1268.97V1269H1539.08L1538.99 1251.56H1546.35L1546.38 1256.1H1553.36H1553.42ZM1563.56 1269V1251.56H1570.92V1269H1563.56ZM1552.56 1264.81C1553.37 1264.81 1554.01 1264.77 1554.48 1264.68C1554.95 1264.59 1555.34 1264.38 1555.66 1264.04C1555.98 1263.7 1556.14 1263.17 1556.14 1262.44C1556.14 1261.69 1555.97 1261.16 1555.63 1260.84C1555.31 1260.52 1554.92 1260.34 1554.48 1260.3C1554.03 1260.23 1553.33 1260.2 1552.4 1260.2H1552.36H1546.38L1546.41 1264.78C1549.59 1264.78 1551.37 1264.79 1551.76 1264.81H1552.56ZM1575.11 1261.64L1572.93 1245.32H1581.19L1579.01 1261.64H1575.11ZM1573.61 1263.08V1269H1580.52V1263.08H1573.61Z" fill="#BBBBBB"/>
<defs>
<filter id="filter0_dii_237_10" x="682.22" y="652" width="895.91" height="463.9" filterUnits="userSpaceOnUse" color-interpolation-filters="sRGB">
<feFlood flood-opacity="0" result="BackgroundImageFix"/>
<feColorMatrix in="SourceAlpha" type="matrix" values="0 0 0 0 0 0 0 0 0 0 0 0 0 0 0 0 0 0 127 0" result="hardAlpha"/>
<feOffset dx="-15" dy="20"/>
<feGaussianBlur stdDeviation="11.95"/>
<feComposite in2="hardAlpha" operator="out"/>
<feColorMatrix type="matrix" values="0 0 0 0 0 0 0 0 0 0 0 0 0 0 0 0 0 0 0.25 0"/>
<feBlend mode="normal" in2="BackgroundImageFix" result="effect1_dropShadow_237_10"/>
<feBlend mode="normal" in="SourceGraphic" in2="effect1_dropShadow_237_10" result="shape"/>
<feColorMatrix in="SourceAlpha" type="matrix" values="0 0 0 0 0 0 0 0 0 0 0 0 0 0 0 0 0 0 127 0" result="hardAlpha"/>
<feOffset dx="4" dy="4"/>
<feGaussianBlur stdDeviation="2"/>
<feComposite in2="hardAlpha" operator="arithmetic" k2="-1" k3="1"/>
<feColorMatrix type="matrix" values="0 0 0 0 0 0 0 0 0 0 0 0 0 0 0 0 0 0 0.25 0"/>
<feBlend mode="normal" in2="shape" result="effect2_innerShadow_237_10"/>
<feColorMatrix in="SourceAlpha" type="matrix" values="0 0 0 0 0 0 0 0 0 0 0 0 0 0 0 0 0 0 127 0" result="hardAlpha"/>
<feOffset dx="-4" dy="-4"/>
<feGaussianBlur stdDeviation="2"/>
<feComposite in2="hardAlpha" operator="arithmetic" k2="-1" k3="1"/>
<feColorMatrix type="matrix" values="0 0 0 0 0 0 0 0 0 0 0 0 0 0 0 0 0 0 0.25 0"/>
<feBlend mode="normal" in2="effect2_innerShadow_237_10" result="effect3_innerShadow_237_10"/>
</filter>
<filter id="filter1_f_237_10" x="460" y="301" width="1373" height="1104" filterUnits="userSpaceOnUse" color-interpolation-filters="sRGB">
<feFlood flood-opacity="0" result="BackgroundImageFix"/>
<feBlend mode="normal" in="SourceGraphic" in2="BackgroundImageFix" result="shape"/>
<feGaussianBlur stdDeviation="200" result="effect1_foregroundBlur_237_10"/>
</filter>
</defs>
</svg>
