<svg width="1153" height="416" viewBox="0 0 1153 416" fill="none" xmlns="http://www.w3.org/2000/svg">
<path d="M266.658 10C266.658 4.47717 271.136 0 276.658 0H685.383C690.906 0 695.383 4.47715 695.383 10V279.627C695.383 285.15 690.906 289.627 685.383 289.627H276.658C271.136 289.627 266.658 285.15 266.658 279.627V10Z" fill="#2D2D2D" fill-opacity="0.5"/>
<path d="M726.823 10C726.823 4.47717 731.3 0 736.823 0H876.88C882.403 0 886.88 4.47715 886.88 10V279.627C886.88 285.15 882.403 289.627 876.88 289.627H736.823C731.3 289.627 726.823 285.15 726.823 279.627V10Z" fill="#2D2D2D" fill-opacity="0.5"/>
<path d="M266.88 318C266.88 312.477 271.357 308 276.88 308H876.88C882.403 308 886.88 312.477 886.88 318V406C886.88 411.523 882.403 416 876.88 416H276.88C271.357 416 266.88 411.523 266.88 406V318Z" fill="#2D2D2D" fill-opacity="0.5"/>
<path d="M216.768 324V265.12H152V234.4H322.24V265.12H257.216V324H216.768Z" fill="#2D2D2D" fill-opacity="0.5"/>
<path d="M395.215 233.12H488.655C513.359 233.12 533.455 254.496 533.455 279.2C533.455 303.904 513.359 325.28 488.655 325.28H395.215C370.511 325.28 350.415 303.904 350.415 279.2C350.415 254.496 370.511 233.12 395.215 233.12ZM480.335 266.4H403.535C396.495 266.4 390.735 272.16 390.735 279.2C390.735 286.24 396.495 292 403.535 292H480.335C487.375 292 493.135 286.24 493.135 279.2C493.135 272.16 487.375 266.4 480.335 266.4Z" fill="#2D2D2D" fill-opacity="0.5"/>
<path d="M673.339 311.328L663.099 324H617.531L544.955 234.4H590.523L640.315 295.84L650.555 283.168L611.003 234.4H656.571L673.339 255.136L690.107 234.4H735.675L696.123 283.168L706.363 295.84L756.155 234.4H801.723L729.147 324H683.579L673.339 311.328Z" fill="#2D2D2D" fill-opacity="0.5"/>
<path d="M829.87 324V234.4H870.318L959.662 285.6V234.4H1000.11V324H959.662L870.318 272.8V324H829.87Z" fill="#2D2D2D" fill-opacity="0.5"/>
<path d="M129.92 139.4H53.12C46.08 139.4 40.32 145.16 40.32 152.2C40.32 159.24 46.08 165 53.12 165H82.176L71.552 151.944L106.88 152.072L117.376 165H129.92C136.96 165 142.72 159.24 142.72 152.2C142.72 145.16 136.96 139.4 129.92 139.4ZM44.8 106.12H138.24C162.944 106.12 183.04 127.496 183.04 152.2C183.04 174.984 166.016 194.824 144.128 197.896L151.68 207.24H116.352L109.056 198.28H44.8C20.096 198.28 0 176.904 0 152.2C0 127.496 20.096 106.12 44.8 106.12Z" fill="#2D2D2D" fill-opacity="0.5"/>
<path d="M299.884 184.328L289.644 197H244.076L171.5 107.4H217.068L266.86 168.84L277.1 156.168L237.548 107.4H283.116L299.884 128.136L316.652 107.4H362.22L322.668 156.168L332.908 168.84L382.7 107.4H428.268L355.692 197H310.124L299.884 184.328Z" fill="#2D2D2D" fill-opacity="0.5"/>
<path d="M433.375 197V107.4H599.775V130.44H473.823V140.68H599.775V163.72H473.823V173.96H599.775V197H433.375Z" fill="#2D2D2D" fill-opacity="0.5"/>
<path d="M734.16 138.12H650.448V148.36H734.16C737.744 148.36 739.792 146.44 739.792 143.24C739.792 140.04 737.744 138.12 734.16 138.12ZM650.448 197H610V107.4H744.4C766.8 107.4 780.24 125.32 780.24 143.24C780.24 158.728 770.128 174.216 752.976 178.184L780.24 197H728.016L702.032 179.08H650.448V197Z" fill="#2D2D2D" fill-opacity="0.5"/>
<path d="M851.393 197V138.12H786.625V107.4H956.865V138.12H891.841V197H851.393Z" fill="#2D2D2D" fill-opacity="0.5"/>
<path d="M1037.14 197V166.28L962 107.4H1015.38L1057.36 140.424L1099.34 107.4H1152.72L1077.58 166.28V197H1037.14Z" fill="#2D2D2D" fill-opacity="0.5"/>
</svg>
